<svg width="88" height="88" viewBox="0 0 88 88" fill="none" xmlns="http://www.w3.org/2000/svg">
<path d="M44.8828 78.2471C46.3405 78.2471 47.5228 77.0648 47.5228 75.6071V12.3202C47.5228 10.8625 46.3405 9.68016 44.8828 9.68016H12.3202C10.8625 9.68016 9.68016 10.8625 9.68016 12.3202V75.6071C9.68016 77.0648 10.8625 78.2471 12.3202 78.2471H44.8828ZM44.8828 81.7671H12.3202C8.91849 81.7671 6.16016 79.0088 6.16016 75.6071V12.3202C6.16016 8.91849 8.91849 6.16016 12.3202 6.16016H44.8828C48.2845 6.16016 51.0428 8.91849 51.0428 12.3202V75.6071C51.0428 79.0088 48.2845 81.7671 44.8828 81.7671ZM78.2798 23.4973V66.4888C78.2798 70.7351 74.8377 74.1774 70.5913 74.1774C66.3423 74.1774 62.9 70.7352 62.9 66.4888C62.9 65.5168 62.1121 64.7288 61.14 64.7288C60.168 64.7288 59.38 65.5168 59.38 66.4888C59.38 72.6792 64.3982 77.6974 70.5886 77.6974C76.7817 77.6974 81.7998 72.6792 81.7998 66.4888V23.4973C81.7998 22.5252 81.0119 21.7373 80.0398 21.7373C79.0678 21.7373 78.2798 22.5252 78.2798 23.4973Z" fill="white"/>
<path d="M62.8989 66.983V31.6809C62.8989 30.7089 62.1109 29.9209 61.1389 29.9209C60.1669 29.9209 59.3789 30.7089 59.3789 31.6809V66.983C59.3789 67.955 60.1669 68.743 61.1389 68.743C62.1109 68.743 62.8989 67.955 62.8989 66.983Z" fill="white"/>
<path d="M62.9014 31.4117V28.447C62.9014 24.2005 59.4593 20.7584 55.2128 20.7584C50.9662 20.7584 47.5233 24.2005 47.5233 28.447V31.4117C47.5233 32.3838 48.3113 33.1717 49.2833 33.1717C50.2554 33.1717 51.0434 32.3838 51.0434 31.4117V28.447C51.0434 26.1448 52.9101 24.2784 55.2128 24.2784C57.5152 24.2784 59.3813 26.1445 59.3813 28.447V31.4117C59.3813 32.3838 60.1693 33.1717 61.1414 33.1717C62.1134 33.1717 62.9014 32.3838 62.9014 31.4117ZM80.9961 21.9129L65.9815 6.89831C65.2942 6.21098 64.1798 6.21098 63.4925 6.89831C62.8052 7.58564 62.8052 8.69999 63.4925 9.38732L78.5071 24.4019C79.1944 25.0892 80.3088 25.0892 80.9961 24.4019C81.6834 23.7146 81.6834 22.6002 80.9961 21.9129ZM37.7128 24.1936C38.199 24.1936 38.5928 23.7997 38.5928 23.3136V19.3536C38.5928 18.8674 38.199 18.4736 37.7128 18.4736H19.3824C19.2669 18.4736 19.1524 18.4963 19.0456 18.5405C18.9389 18.5847 18.8418 18.6495 18.7601 18.7313C18.6784 18.813 18.6136 18.91 18.5694 19.0168C18.5251 19.1236 18.5024 19.238 18.5024 19.3536V23.3136C18.5024 23.7997 18.8963 24.1936 19.3824 24.1936H37.7128ZM37.7128 27.7136H19.3824C16.9523 27.7136 14.9824 25.7437 14.9824 23.3136V19.3536C14.9824 16.9234 16.9523 14.9536 19.3824 14.9536H37.7128C40.1429 14.9536 42.1128 16.9234 42.1128 19.3536V23.3136C42.1128 25.7437 40.1429 27.7136 37.7128 27.7136Z" fill="white"/>
<path d="M79.8328 30.8374H75.6238C74.6519 30.8374 73.8637 30.0492 73.8637 29.0774V16.4221C73.8637 15.4501 73.0758 14.6621 72.1037 14.6621C71.1317 14.6621 70.3438 15.4501 70.3438 16.4221V29.0774C70.3438 31.9933 72.7078 34.3574 75.6238 34.3574H79.8328C80.8048 34.3574 81.5928 33.5694 81.5928 32.5974C81.5928 31.6253 80.8048 30.8374 79.8328 30.8374Z" fill="white"/>
</svg>
