<svg width="66" height="66" viewBox="0 0 66 66" fill="none" xmlns="http://www.w3.org/2000/svg">
<path d="M3.6705 19.2815C3.66334 21.7083 4.2222 24.1033 5.30267 26.2763C6.38335 28.4496 7.95604 30.3409 9.89573 31.7996C11.8354 33.2583 14.0886 34.2444 16.4761 34.6793C18.8628 35.114 21.3179 34.986 23.6465 34.3055C23.6473 34.3053 23.6482 34.305 23.6491 34.3048L24.5459 34.053L52.6712 62.2053L53.0244 62.5588L4.1705 19.2816M3.6705 19.2815C3.6705 19.281 3.6705 19.2805 3.6705 19.2801L4.1705 19.2816M3.6705 19.2815C3.6705 19.2819 3.6705 19.2824 3.6705 19.2828L4.1705 19.2816M3.6705 19.2815C3.66794 18.2145 3.77584 17.15 3.99248 16.1052L4.18059 15.198L4.83566 15.8532L14.0577 25.0773M4.1705 19.2816C4.16844 18.4509 4.23556 17.6217 4.37102 16.8028L4.12848 16.5602L4.48207 16.2067L4.97165 16.3082C4.94926 16.4163 4.9281 16.5245 4.90819 16.6329L13.7042 25.4309L14.0577 25.0773M14.0577 25.0773L14.4112 25.4309L25.4608 14.3788L25.1069 14.0256L25.4605 13.672M61.8528 53.0428L61.4992 53.3963L61.4989 53.396L61.8528 53.0428ZM61.8528 53.0428L61.4996 52.6889L61.4993 52.6892L61.8528 53.0428ZM16.2387 4.46821C16.4365 4.42667 16.6349 4.38916 16.8338 4.35568L16.5919 4.11431L16.2387 4.46821ZM16.2387 4.46821L16.3415 4.95754C16.4491 4.93494 16.5568 4.91358 16.6648 4.89345L16.2387 4.46821ZM64.428 50.4461L64.4282 50.4463C64.768 50.7858 65.0375 51.1889 65.2214 51.6327C65.4053 52.0764 65.5 52.5521 65.5 53.0324C65.5 53.5128 65.4053 53.9884 65.2214 54.4322C65.0375 54.8759 64.768 55.2791 64.4282 55.6185L64.428 55.6187L55.6209 64.4278L55.6207 64.428C55.2813 64.7679 54.8783 65.0375 54.4347 65.2214C53.9911 65.4053 53.5156 65.5 53.0353 65.5C52.5551 65.5 52.0796 65.4053 51.636 65.2214C51.1924 65.0375 50.7894 64.7679 50.45 64.428L50.4498 64.4278L23.8 37.772L23.6057 37.5777L23.3375 37.6375C19.9476 38.3937 16.4143 38.1935 13.1315 37.0592C9.84859 35.9249 6.94509 33.9011 4.74455 31.2133C2.54402 28.5255 1.13289 25.2792 0.668445 21.8364C0.204003 18.3935 0.704494 14.8893 2.11414 11.7142L2.11422 11.714L3.04429 9.61694L13.7041 20.2792L14.0583 20.6335L14.4119 20.2785L20.2695 14.3989L20.6217 14.0454L20.2689 13.6925L9.61034 3.03158L11.7251 2.10024L11.7256 2.10004C14.9002 0.698071 18.4011 0.203544 21.8397 0.671357C25.2783 1.13917 28.52 2.55102 31.2049 4.75017C33.8899 6.94932 35.9129 9.84972 37.0495 13.1294C38.1861 16.409 38.3917 19.9396 37.6436 23.329L37.5845 23.5966L37.7782 23.7903L64.428 50.4461Z" fill="white" stroke="#2463EB"/>
</svg>
