<svg width="77" height="78" viewBox="0 0 77 78" fill="none" xmlns="http://www.w3.org/2000/svg">
<path d="M23.1432 32.7494L23.1432 32.7494L23.138 32.7523L7.89257 41.5174L7.89255 41.5174L7.88457 41.5221C6.81149 42.1523 5.95053 43.2555 5.38084 44.4564C4.80811 45.6637 4.47874 47.0751 4.56373 48.4203L5.05119 58.9462L2.59944 61.8076L2.59943 61.8076L2.59575 61.8119C1.80696 62.7431 1.31187 63.9385 1.10811 65.1097C0.906166 66.2705 0.972645 67.5143 1.43267 68.5361L3.99126 74.3746L3.9912 74.3746L3.99593 74.385C4.45377 75.3981 5.25834 76.1812 6.26074 76.5391C7.27348 76.9007 8.41399 76.8003 9.4602 76.1778L11.446 75.0487L12.226 74.6053L11.8694 73.782C10.3481 70.2697 11.6481 66.0639 14.5484 64.3899C17.3388 62.7793 20.8603 64.03 22.3615 67.496L22.8071 68.5246L23.7784 67.9651L39.7087 58.7875L40.4817 58.3421L40.1271 57.5235C38.6058 54.0113 39.9058 49.8054 42.8061 48.1314C45.5965 46.5209 49.118 47.7716 50.6192 51.2376L51.0559 52.2457L52.0186 51.7165L53.2692 51.029L53.2822 51.0219L53.295 51.0143C55.1872 49.8999 55.9943 47.4661 55.0709 45.4154L52.5421 39.6456L52.5179 39.5904L52.4872 39.5385C51.4045 37.7052 49.1086 36.552 47 37.2397C46.9994 37.2399 46.9987 37.2401 46.9981 37.2403L37.031 40.458L30.2027 33.8678C28.3622 32.0352 25.2608 31.5485 23.1432 32.7494ZM14.0166 44.7396L17.0375 51.8229L10.2142 55.7222L9.89737 48.2108C9.90185 47.989 9.99275 47.6527 10.1587 47.3016C10.2387 47.1322 10.3243 46.985 10.3997 46.8751C10.4356 46.8229 10.4629 46.7884 10.4802 46.7677L14.0166 44.7396ZM18.7499 41.9857L25.5199 38.1542C25.539 38.1516 25.5674 38.1485 25.6065 38.1464C25.7179 38.1404 25.8626 38.1454 26.0171 38.1671C26.1722 38.1889 26.3149 38.2244 26.4293 38.2683C26.5443 38.3125 26.5941 38.351 26.6046 38.3606L31.7257 43.3739L21.8156 49.009L18.7499 41.9857Z" stroke="white" stroke-width="2"/>
<path d="M70.1738 48.6864L73.269 44.7355C73.2694 44.735 73.2698 44.7345 73.2702 44.734C74.4276 43.2627 74.5991 40.8246 73.6847 38.979L72.3864 36.1038L74.7796 28.0132C74.78 28.0118 74.7805 28.0103 74.7809 28.0088C75.1065 26.9406 75.104 25.7198 74.8771 24.6188C74.6517 23.5246 74.1786 22.426 73.44 21.6631L63.0875 10.9487C61.6146 9.34932 59.0166 9.06084 57.1659 9.94054L57.1503 9.94797L57.1349 9.95594L51.499 12.8781L51.0906 3.47884L51.0901 3.46729L51.0893 3.45576C51.0342 2.62868 50.3684 1.67142 49.2587 1.76996C48.2422 1.86022 47.6415 2.79094 47.6934 3.67733L48.0231 11.481L43.5579 8.2781L43.5579 8.27809L43.5542 8.27544C41.9405 7.12913 39.8116 7.52499 38.6352 8.92988L38.6229 8.94456L38.6112 8.95969L35.61 12.8358C34.4565 14.2689 34.4883 16.4714 35.8239 17.9036L36.4635 18.8346L37.2443 19.9709L38.082 18.8759C39.7472 16.6992 42.5971 16.5338 44.4203 18.4722L44.4275 18.4798L44.4348 18.4873C46.3689 20.4591 46.5573 24.0152 44.7839 26.2379L44.2395 26.9201L44.8419 27.5517L55.5614 38.7917L56.3686 39.6381L57.0793 38.7091C58.7445 36.5325 61.5944 36.367 63.4175 38.3054L63.4247 38.3131L63.4321 38.3206C65.3662 40.2923 65.5546 43.8485 63.7812 46.0711L63.2316 46.7599L63.8457 47.3917L65.2155 48.801L65.2262 48.8121L65.2373 48.8229C66.7112 50.2483 68.878 50.2347 70.1533 48.7117L70.1638 48.6992L70.1738 48.6864ZM70.2044 26.5089L68.6362 31.9398L64.3075 27.4765L67.7455 23.0528L70.0726 25.435C70.0766 25.4438 70.0813 25.455 70.0866 25.4687C70.1176 25.548 70.1517 25.6668 70.1783 25.8126C70.2336 26.1149 70.2304 26.3808 70.2044 26.5089ZM70.0593 25.4082C70.0594 25.4082 70.0603 25.4097 70.0621 25.413C70.0602 25.4099 70.0593 25.4082 70.0593 25.4082ZM59.1814 14.6561L59.1814 14.6561L59.1877 14.6528C59.2002 14.6463 59.2384 14.6309 59.3113 14.6238C59.3834 14.6168 59.4702 14.6201 59.5616 14.6355C59.6535 14.651 59.7312 14.6755 59.7836 14.6981C59.7912 14.7014 59.7976 14.7043 59.8029 14.7069L64.2828 19.3973L55.2271 30.9084L50.4004 25.8854C50.8792 24.3411 51.0393 22.6713 50.7684 20.9441L53.4484 17.5826L59.1814 14.6561ZM59.8235 14.7178C59.8235 14.7179 59.8225 14.7173 59.8208 14.7162C59.8226 14.7172 59.8235 14.7178 59.8235 14.7178Z" stroke="white" stroke-width="2"/>
</svg>
