<svg width="80" height="68" viewBox="0 0 80 68" fill="none" xmlns="http://www.w3.org/2000/svg">
<path d="M53.7261 16.4559C53.7261 14.891 56.5459 9.93873 56.5459 9.93873C56.5459 9.93873 59.363 14.891 59.363 16.4559C59.363 18.0208 58.0972 19.2817 56.5459 19.2817C54.9896 19.2866 53.7261 18.0208 53.7261 16.4559ZM48.0528 14.6153C49.6118 14.6153 50.8753 13.3469 50.8753 11.7895C50.8753 10.2219 48.0528 5.267 48.0528 5.267C48.0528 5.267 45.2357 10.2219 45.2357 11.7895C45.2331 13.3442 46.4935 14.6153 48.0528 14.6153ZM39.6387 19.2866C41.1976 19.2866 42.4558 18.0182 42.4558 16.4581C42.4558 14.8985 39.6387 9.94094 39.6387 9.94094C39.6387 9.94094 36.8189 14.8905 36.8189 16.4581C36.8189 18.0235 38.0797 19.2866 39.6387 19.2866ZM31.1456 14.6153C32.7046 14.6153 33.9681 13.3469 33.9681 11.7895C33.9681 10.2219 31.1456 5.267 31.1456 5.267C31.1456 5.267 28.3259 10.2219 28.3259 11.7895C28.3259 13.3442 29.5863 14.6153 31.1456 14.6153ZM22.7315 19.2866C24.2904 19.2866 25.5512 18.0182 25.5512 16.4581C25.5512 14.8985 22.7315 9.94094 22.7315 9.94094C22.7315 9.94094 19.9117 14.8905 19.9117 16.4585C19.9117 18.0235 21.1725 19.2866 22.7315 19.2866ZM14.238 14.6153C15.7969 14.6153 17.0604 13.3469 17.0604 11.7895C17.0604 10.2219 14.238 5.267 14.238 5.267C14.238 5.267 11.4182 10.2219 11.4182 11.7895C11.4186 13.3442 12.6791 14.6153 14.238 14.6153ZM65.0367 14.6153C66.5956 14.6153 67.8591 13.3469 67.8591 11.7895C67.8591 10.2219 65.0367 5.267 65.0367 5.267C65.0367 5.267 62.2142 10.2219 62.2142 11.7895C62.2142 13.3442 63.4773 14.6153 65.0367 14.6153ZM75.0492 0.0839844H4.22281V2.7323H75.0492V0.0839844ZM79.2773 57.4349H76.3703V61.1875H65.8976C65.274 64.6569 62.2536 67.2945 58.6198 67.2945C54.9812 67.2945 51.9603 64.6569 51.3341 61.1875H28.8042C28.1779 64.6569 25.1602 67.2945 21.5264 67.2945C17.8904 67.2945 14.8722 64.6569 14.246 61.1875H2.225V57.4349H0V52.1383H2.22235V41.7279H19.2615L27.6518 27.2129H61.9737L70.364 41.7279H76.3707V52.1383H79.2778V57.4349H79.2773ZM26.2935 59.8635C26.2935 57.2285 24.1531 55.0835 21.5237 55.0835C18.8917 55.0835 16.7513 57.2285 16.7513 59.8635C16.7513 62.5012 18.8917 64.6462 21.5237 64.6462C24.1557 64.6462 26.2935 62.5012 26.2935 59.8635ZM63.3927 59.8635C63.3927 57.2285 61.2523 55.0835 58.6203 55.0835C55.9883 55.0835 53.8425 57.2285 53.8425 59.8635C53.8425 62.5012 55.9883 64.6462 58.6203 64.6462C61.2523 64.6462 63.3927 62.5012 63.3927 59.8635ZM73.7281 44.3762H68.8392L60.4489 29.8612H29.1766L20.7863 44.3762H4.86764V58.5391H14.246C14.8722 55.0724 17.8899 52.4347 21.5264 52.4347C25.1597 52.4347 28.1806 55.0724 28.8042 58.5391H51.3376C51.9639 55.0724 54.9843 52.4347 58.6234 52.4347C62.2567 52.4347 65.2802 55.0724 65.9011 58.5391H73.7285V44.3762H73.7281ZM43.3938 44.1964H57.3018V32.8881H43.3938V44.1964ZM59.944 44.1964H65.2501L59.944 35.0176V44.1964ZM24.3829 44.1964H40.7512V32.8881H30.918L24.3829 44.1964Z" fill="white"/>
</svg>
