<svg width="67" height="75" viewBox="0 0 67 75" fill="none" xmlns="http://www.w3.org/2000/svg">
<path fill-rule="evenodd" clip-rule="evenodd" d="M20.2238 1.67519C20.9781 2.88677 20.6112 4.48277 19.4043 5.23998L5.66064 13.8631C4.45375 14.6203 2.86392 14.252 2.10964 13.0404C1.35536 11.8289 1.72224 10.2329 2.9291 9.47565L16.6728 0.852542C17.8797 0.0953297 19.4695 0.46364 20.2238 1.67519ZM46.7763 1.67519C47.5305 0.46364 49.1203 0.0953297 50.3273 0.852542L64.0709 9.47565C65.2779 10.2329 65.6445 11.8289 64.8904 13.0404C64.1362 14.252 62.5464 14.6203 61.3394 13.8631L47.5958 5.23998C46.3887 4.48277 46.0221 2.88673 46.7763 1.67519ZM33.5 12.5317C17.8448 12.5317 5.15385 25.272 5.15385 40.9879C5.15385 56.7037 17.8448 69.4442 33.5 69.4442C49.155 69.4442 61.8462 56.7037 61.8462 40.9879C61.8462 25.272 49.155 12.5317 33.5 12.5317ZM0 40.9879C0 22.4145 14.9984 7.35782 33.5 7.35782C52.0016 7.35782 67 22.4145 67 40.9879C67 59.5614 52.0016 74.6181 33.5 74.6181C14.9984 74.6181 0 59.5614 0 40.9879ZM42.611 31.8416C43.617 32.8519 43.617 34.4899 42.611 35.5002L37.1441 40.9879L42.6106 46.4757C43.617 47.486 43.617 49.124 42.6106 50.1343C41.6042 51.1446 39.9729 51.1446 38.9665 50.1343L33.5 44.6466L28.0335 50.1343C27.0271 51.1442 25.3955 51.1442 24.3892 50.134C23.3829 49.124 23.3829 47.486 24.3892 46.4757L29.8555 40.9879L24.3891 35.5002C23.3828 34.4899 23.3828 32.8522 24.3891 31.8419C25.3955 30.8316 27.0271 30.8316 28.0335 31.8419L33.5 37.3297L38.9665 31.8416C39.9729 30.8316 41.6046 30.8316 42.611 31.8416Z" fill="white"/>
</svg>
