<svg width="30" height="18" viewBox="0 0 30 18" fill="none" xmlns="http://www.w3.org/2000/svg">
<path fill-rule="evenodd" clip-rule="evenodd" d="M27 10.5H26.6895C25.563 9 24.4065 8.8755 22.929 9C22.4025 9.045 21.414 9.23855 21 9.65405V7.5H27V10.5ZM23.358 15C22.53 15 21.858 14.3265 21.858 13.5C21.858 12.6735 22.53 12 23.358 12C24.1845 12 24.858 12.6735 24.858 13.5C24.858 14.3265 24.1845 15 23.358 15ZM18 10.5H11.6895C10.866 9.5865 9.68549 9 8.35799 9C7.03049 9 5.84851 9.5865 5.02501 10.5H3V7.5H18V10.5ZM8.35799 15C7.52999 15 6.85799 14.3265 6.85799 13.5C6.85799 12.6735 7.52999 12 8.35799 12C9.18449 12 9.85799 12.6735 9.85799 13.5C9.85799 14.3265 9.18449 15 8.35799 15ZM21 4.5V0H18V4.5H3V0H0V13.5H3.85799C3.85799 15.9855 5.87249 18 8.35799 18C10.842 18 12.858 15.9855 12.858 13.5H18.858C18.858 15.9855 20.8725 18 23.358 18C25.842 18 27.858 15.9855 27.858 13.5H30V4.5H21Z" fill="#2463EB"/>
</svg>
