<svg width="32" height="20" viewBox="0 0 32 20" fill="none" xmlns="http://www.w3.org/2000/svg">
<path d="M8.04226 11.1104C5.5878 11.1104 3.59766 13.1001 3.59766 15.5553C3.59766 18.0098 5.5878 19.9996 8.04226 19.9996C10.4971 19.9996 12.4872 18.0098 12.4872 15.5553C12.4873 13.1001 10.4971 11.1104 8.04226 11.1104ZM8.04226 17.4302C7.00668 17.4302 6.16705 16.5906 6.16705 15.5554C6.16705 14.5198 7.00668 13.6802 8.04226 13.6802C9.07828 13.6802 9.91754 14.5198 9.91754 15.5554C9.91754 16.5906 9.07828 17.4302 8.04226 17.4302Z" fill="#2463EB"/>
<path d="M24.2493 11.1104C21.7945 11.1104 19.8047 13.1001 19.8047 15.5553C19.8047 18.0098 21.7945 19.9996 24.2493 19.9996C26.7041 19.9996 28.6939 18.0098 28.6939 15.5553C28.6939 13.1001 26.7041 11.1104 24.2493 11.1104ZM24.2493 17.4302C23.2137 17.4302 22.3741 16.5906 22.3741 15.5554C22.3741 14.5198 23.2137 13.6802 24.2493 13.6802C25.2849 13.6802 26.1249 14.5198 26.1249 15.5554C26.125 16.5906 25.2849 17.4302 24.2493 17.4302Z" fill="#2463EB"/>
<path d="M31.2109 7.31527L28.9103 4.49461C28.2769 3.71822 27.3282 3.268 26.326 3.268H20.5895V8.10489H19.2815V7.71298V2.48331V2.0914H24.9031V0H16.9284V2.09146V2.48337H0V8.10496L10.5796 10.1129C12.6277 11.0729 14.0531 13.1486 14.0531 15.5563C14.0531 15.6006 14.0473 15.6427 14.0468 15.6866H18.2422C18.2418 15.6428 18.2356 15.6006 18.2356 15.5563C18.2356 12.2404 20.9335 9.54244 24.2491 9.54244C27.2529 9.54244 29.7421 11.7587 30.1848 14.6406H30.8504C31.4643 14.6406 31.962 14.1429 31.962 13.529V9.42296C31.9621 8.65474 31.6967 7.91019 31.2109 7.31527ZM4.60785 7.5538L3.52925 7.3624V4.0522H4.60785V7.5538ZM9.2162 8.37364L8.1376 8.18137V4.0522H9.2162V8.37364ZM13.8241 9.19753L12.7455 9.00576V4.05226H13.8241V9.19753ZM23.0208 7.76467V5.14983H26.4046C26.701 5.14983 26.978 5.2813 27.1654 5.51072L29.0038 7.76467H23.0208Z" fill="#2463EB"/>
</svg>
