<svg width="34" height="18" viewBox="0 0 34 18" fill="none" xmlns="http://www.w3.org/2000/svg">
<g clip-path="url(#clip0_631_2076)">
<path d="M12.1419 15.8714H11.4414V7.54397C11.7655 7.54397 12.0918 7.52544 12.4168 7.55064C12.5968 7.56472 12.7101 7.47208 12.8173 7.22232C13.3443 5.99351 13.8884 4.78175 14.4202 3.55665C14.459 3.45382 14.5136 3.37061 14.5782 3.31581C14.6427 3.26102 14.7148 3.23668 14.7869 3.24537C15.3429 3.25945 15.8993 3.25056 16.4557 3.25056C16.7666 3.25056 16.7899 3.28465 16.8307 3.81827H17.8263C17.8896 3.25797 17.8948 3.2513 18.244 3.25056C18.3906 3.25056 18.5369 3.25056 18.6831 3.25056C18.8416 3.25056 18.9308 3.35506 18.929 3.6441C18.926 4.18736 18.9962 4.76396 18.911 5.26645C18.8021 5.90828 18.9703 6.40632 19.0621 6.94884C19.196 7.73963 19.3568 8.51782 19.5092 9.32048C19.5399 9.27749 19.5636 9.26044 19.5711 9.23154C19.8284 8.21248 20.3475 7.89156 20.9369 7.85302C21.8648 7.79151 22.7945 7.80263 23.7233 7.75668C23.8795 7.74125 24.0307 7.65831 24.1625 7.51581C24.6552 6.98589 25.1225 6.38705 25.624 5.8853C26.1071 5.40134 26.627 5.30055 27.1874 5.5429C28.2269 5.99277 29.2751 6.38705 30.3221 6.78579C30.6067 6.89399 30.846 7.11189 31.0274 7.48097C31.247 7.92566 31.4564 8.38812 31.6492 8.86764C32.0471 9.85706 32.5434 10.6553 33.1718 11.217C33.3523 11.3786 33.5231 11.575 33.6957 11.7573C33.9684 12.0449 34.0435 12.4659 33.9746 12.9743C33.863 13.7895 33.755 14.61 33.632 15.42C33.4594 16.5436 32.7506 17.1335 32.0919 16.6896C32.2742 15.7802 32.2289 14.902 31.9004 14.0956C31.6823 13.5454 31.3511 13.1511 30.9707 12.9891C30.4727 12.7668 30.0121 12.9187 29.5931 13.4071C29.1741 13.8955 28.9673 14.6189 28.8847 15.4727L23.7743 13.4605C24.0004 11.4594 23.5253 10.0001 22.5675 9.68067C21.5925 9.35383 20.7669 10.3707 20.5631 12.2109C20.2702 12.0827 19.9742 11.976 19.6892 11.8144C19.6124 11.7707 19.5417 11.5758 19.5136 11.426C19.1675 9.62014 18.8273 7.81103 18.493 5.9987C18.449 5.77636 18.4007 5.65185 18.2387 5.66074C17.8957 5.68001 17.8953 5.66074 17.8206 5.09229H16.8444C16.7715 5.66815 16.7653 5.73559 16.432 5.65333C15.8716 5.51548 15.5365 5.86603 15.2709 6.70278C14.9687 7.65292 14.5796 8.52301 14.2323 9.42201C14.2459 9.46944 14.2485 9.50131 14.2586 9.51095C15.1147 10.3114 15.9715 11.1101 16.829 11.907C17.0661 12.1294 17.3121 12.3154 17.5492 12.5355C17.6089 12.5919 17.6862 12.7164 17.6871 12.8112C17.6968 13.8214 17.6932 14.8323 17.6932 15.8662H16.2655C16.407 14.5729 16.2484 13.4249 15.6946 12.4888C15.2524 11.7477 14.7087 11.3994 14.0838 11.4512C13.0237 11.5431 11.8626 13.1633 12.1419 15.8714ZM24.4686 7.85599L27.5901 9.07812C27.7104 8.21989 27.8272 7.41131 27.93 6.59605C27.9384 6.53009 27.854 6.37371 27.7983 6.35074C27.5308 6.22697 27.2572 6.14544 26.9893 6.02612C26.6981 5.8946 26.3895 5.92395 26.1088 6.10987C25.512 6.48859 25.0316 7.17637 24.4686 7.85599ZM30.4899 10.218C30.4806 10.0312 30.4776 9.8993 30.467 9.76812C30.4174 9.14631 30.3616 8.52524 30.3159 7.90194C30.272 7.31348 30.2777 7.30903 29.9343 7.17488C29.4047 6.96662 28.8742 6.76355 28.3252 6.55085C28.2005 7.45726 28.0815 8.32513 27.9581 9.22339L30.4899 10.218ZM30.7301 7.77224L30.6686 7.82857C30.731 8.59638 30.7951 9.36346 30.8548 10.132C30.8794 10.4492 31.0002 10.4759 31.1394 10.3966C31.5504 10.1617 31.6097 9.85706 31.373 9.2471C31.3005 9.06108 31.2298 8.87653 31.1534 8.6957C31.0138 8.38664 30.8724 8.08204 30.7301 7.77446V7.77224Z" fill="#2463EB"/>
<path d="M1.26045 15.8894C0.901215 15.8894 0.565699 15.8953 0.230183 15.8894C0.0835045 15.8857 0.00182127 15.7412 0.00182127 15.4877C0.00182127 14.6361 -0.00608356 13.7831 0.0110436 12.9323C0.0136785 12.8048 0.127859 12.5913 0.199881 12.5787C0.375544 12.5483 0.392671 12.406 0.392232 12.1659C0.38828 10.6962 0.397502 9.22657 0.384766 7.75763C0.381692 7.41375 0.451518 7.25737 0.633769 7.13285C1.41415 6.59627 2.21342 6.25313 3.06231 6.27832C3.53748 6.29315 4.01352 6.26869 4.48913 6.28722C4.65865 6.29389 4.74648 6.21977 4.81191 5.93369C5.07541 4.77233 5.36569 3.62579 5.63621 2.46814C5.70516 2.17168 5.80133 2.04939 5.99544 2.05681C6.5075 2.0783 7.01999 2.05088 7.53249 2.07163C7.70815 2.07904 7.77622 1.98047 7.80828 1.70106C7.86098 1.24155 7.92949 0.786497 8.00414 0.335885C8.09593 -0.216262 8.36865 0.0964978 8.55924 0.0394302C8.69933 0.000149945 8.87104 -0.042836 8.91496 0.344038C8.97073 0.826518 9.0612 1.29862 9.11829 1.7811C9.14639 2.01827 9.21095 2.07756 9.34226 2.06866C9.6198 2.05434 9.89794 2.05434 10.1767 2.06866C10.6716 2.09016 11.0607 2.72457 11.062 3.55094C11.067 7.60249 11.067 11.654 11.062 15.7056C11.0595 15.7613 11.0552 15.8167 11.0493 15.8716H5.38413C5.54443 14.184 5.25239 12.8144 4.36792 11.9376C3.6376 11.2121 2.87479 11.2551 2.16906 12.0444C1.36145 12.9404 1.09796 14.2589 1.26045 15.8894ZM8.43452 2.70234C7.6414 2.70234 6.86761 2.69641 6.09381 2.71419C6.03584 2.71419 5.95416 2.86242 5.92605 2.97656C5.73722 3.72436 5.55936 4.48032 5.37886 5.23406C5.30069 5.56239 5.22604 5.89145 5.13821 6.25461H8.43188L8.43452 2.70234ZM5.99237 13.1568C5.99237 13.7957 5.99237 14.399 5.99237 15.0023C5.99237 15.2164 6.06966 15.2327 6.16803 15.2327C7.41963 15.2327 8.67123 15.2327 9.92282 15.2327C10.0739 15.2327 10.1086 15.1171 10.106 14.8933C10.1002 14.436 10.0941 13.978 10.106 13.5222C10.1152 13.2139 10.0528 13.1227 9.87012 13.125C8.64795 13.1375 7.42578 13.1309 6.2036 13.1324C6.14475 13.1353 6.08722 13.1464 5.99237 13.1568ZM7.92861 7.74652V7.75245C8.00854 7.75245 8.099 7.79247 8.16532 7.74207C8.23163 7.69167 8.28828 7.54789 8.34801 7.44561C8.28828 7.35594 8.23339 7.204 8.16707 7.18918C8.00867 7.15435 7.84818 7.15659 7.69015 7.19585C7.63218 7.20919 7.53776 7.37076 7.54391 7.44339C7.55478 7.50717 7.57361 7.5663 7.59914 7.61679C7.62466 7.66728 7.65629 7.70797 7.6919 7.73614C7.75866 7.78209 7.84868 7.74503 7.92861 7.74503V7.74652Z" fill="#2463EB"/>
<path d="M14.1943 17.9999C13.9618 18 13.7316 17.9221 13.5171 17.7709C13.3026 17.6197 13.108 17.3982 12.9446 17.1191C12.7812 16.84 12.6523 16.509 12.5652 16.1452C12.4782 15.7814 12.4348 15.3921 12.4376 14.9998C12.4386 14.4072 12.5438 13.8285 12.7399 13.337C12.936 12.8454 13.2142 12.4633 13.5392 12.2389C13.8642 12.0145 14.2213 11.9581 14.5653 12.0767C14.9094 12.1953 15.2248 12.4836 15.4716 12.9051C15.7184 13.3266 15.8854 13.8623 15.9516 14.4442C16.0178 15.0262 15.9801 15.6282 15.8432 16.1739C15.7064 16.7197 15.4767 17.1845 15.1831 17.5096C14.8895 17.8347 14.5454 18.0054 14.1943 17.9999ZM13.4727 14.9954C13.4721 15.2405 13.5146 15.4805 13.5947 15.685C13.6748 15.8896 13.789 16.0495 13.9229 16.1446C14.0568 16.2398 14.2044 16.2658 14.347 16.2196C14.4897 16.1734 14.6211 16.0569 14.7246 15.8848C14.828 15.7127 14.899 15.4928 14.9285 15.2527C14.9581 15.0127 14.9448 14.7632 14.8904 14.5359C14.8361 14.3085 14.743 14.1134 14.623 13.9752C14.503 13.837 14.3615 13.7618 14.2162 13.7591C14.0206 13.7572 13.8324 13.8862 13.6931 14.1179C13.5537 14.3497 13.4745 14.6652 13.4727 14.9954Z" fill="#2463EB"/>
<path d="M3.30145 17.9991C3.06887 17.9977 2.83875 17.9186 2.62439 17.7663C2.41002 17.6141 2.21566 17.3916 2.05253 17.1118C1.8894 16.832 1.76074 16.5005 1.67397 16.1363C1.58721 15.7721 1.54406 15.3825 1.54702 14.99C1.55009 13.3469 2.35858 11.9921 3.32648 12.0092C3.55953 12.012 3.78997 12.0922 4.00465 12.2453C4.21933 12.3983 4.41405 12.6213 4.57767 12.9013C4.7413 13.1814 4.87064 13.5131 4.95831 13.8775C5.04597 14.242 5.09025 14.632 5.0886 15.0253C5.08696 15.4186 5.03943 15.8075 4.94873 16.1698C4.85802 16.5321 4.72593 16.8607 4.55997 17.1368C4.39402 17.4129 4.19746 17.6312 3.98153 17.7792C3.76559 17.9271 3.5345 18.0018 3.30145 17.9991ZM4.05373 15.0271C4.05389 14.7826 4.01118 14.5434 3.93096 14.3397C3.85075 14.1361 3.73662 13.977 3.60295 13.8826C3.46928 13.7882 3.32205 13.7626 3.17979 13.8091C3.03753 13.8557 2.9066 13.9722 2.8035 14.144C2.7004 14.3158 2.62973 14.5353 2.60039 14.7748C2.57105 15.0143 2.58436 15.2631 2.63863 15.4898C2.6929 15.7166 2.78572 15.9111 2.90538 16.049C3.02505 16.187 3.16622 16.262 3.31111 16.2648C3.70943 16.2826 4.05065 15.7119 4.05373 15.0271Z" fill="#2463EB"/>
<path d="M22.2223 14.6558C21.9577 14.6532 21.6995 14.5181 21.4803 14.2677C21.2612 14.0174 21.091 13.6629 20.9912 13.2492C20.8915 12.8355 20.8667 12.3812 20.92 11.9438C20.9733 11.5063 21.1023 11.1053 21.2906 10.7916C21.479 10.4779 21.7182 10.2655 21.9781 10.1813C22.238 10.0972 22.5069 10.145 22.7507 10.3187C22.9944 10.4925 23.2022 10.7843 23.3477 11.1574C23.4932 11.5305 23.5698 11.968 23.5679 12.4146C23.5669 12.711 23.5313 13.0041 23.4631 13.2772C23.3949 13.5503 23.2955 13.798 23.1705 14.0062C23.0456 14.2144 22.8975 14.3789 22.7348 14.4904C22.572 14.6019 22.3979 14.6581 22.2223 14.6558ZM22.9807 12.4035C22.9793 12.1515 22.9339 11.9059 22.85 11.6974C22.7661 11.4889 22.6476 11.3268 22.5094 11.2317C22.3711 11.1365 22.2193 11.1124 22.0729 11.1624C21.9266 11.2124 21.7922 11.3343 21.6868 11.5127C21.5814 11.6911 21.5095 11.9182 21.4803 12.1653C21.4511 12.4125 21.4658 12.6687 21.5226 12.9017C21.5794 13.1348 21.6758 13.3343 21.7996 13.4752C21.9233 13.6162 22.069 13.6922 22.2184 13.6938C22.319 13.6958 22.4189 13.6638 22.5121 13.5996C22.6054 13.5355 22.69 13.4405 22.7612 13.3202C22.8323 13.2 22.8884 13.0569 22.9263 12.8995C22.9642 12.742 22.983 12.5734 22.9816 12.4035H22.9807Z" fill="#2463EB"/>
<path d="M31.8832 15.6942C31.875 16.2856 31.7293 16.8478 31.4777 17.2597C31.2262 17.6716 30.8887 17.9002 30.5382 17.8963C30.1877 17.8923 29.8521 17.656 29.6039 17.2384C29.3556 16.8208 29.2145 16.2553 29.2109 15.6638C29.2105 15.3675 29.2447 15.0739 29.3116 14.7999C29.3785 14.5259 29.4767 14.2769 29.6007 14.067C29.7246 13.8571 29.8719 13.6906 30.034 13.5768C30.1961 13.463 30.37 13.4043 30.5455 13.4041C31.2956 13.4026 31.8863 14.4135 31.8832 15.6942ZM30.5455 14.3905C30.3426 14.3913 30.148 14.5279 30.0046 14.7703C29.8612 15.0127 29.7806 15.3412 29.7805 15.6838C29.7804 15.9401 29.8253 16.1907 29.9096 16.4039C29.9938 16.6171 30.1137 16.7833 30.254 16.8814C30.3943 16.9795 30.5487 17.0052 30.6977 16.9551C30.8466 16.905 30.9834 16.7814 31.0907 16.6C31.198 16.4186 31.271 16.1876 31.3004 15.9361C31.3298 15.6847 31.3144 15.4242 31.256 15.1876C31.1976 14.9509 31.0989 14.7489 30.9725 14.607C30.846 14.4651 30.6974 14.3898 30.5455 14.3905Z" fill="#2463EB"/>
<path d="M24.4688 7.85591C25.0317 7.17629 25.5122 6.48851 26.109 6.10683C26.3897 5.92091 26.6982 5.89156 26.9895 6.02308C27.2574 6.1424 27.531 6.22393 27.7984 6.3477C27.8538 6.37364 27.9381 6.52705 27.9302 6.59301C27.8279 7.40826 27.7106 8.22351 27.5907 9.07879L24.4688 7.85591Z" fill="white"/>
<path d="M30.4912 10.2187L27.959 9.22332C28.0824 8.32506 28.2014 7.45719 28.3261 6.55078C28.8755 6.76349 29.406 6.9673 29.9356 7.17556C30.2791 7.31045 30.2742 7.31415 30.3173 7.90262C30.3612 8.52591 30.4187 9.14698 30.4683 9.7688C30.4784 9.89998 30.4819 10.0319 30.4912 10.2187Z" fill="white"/>
<path d="M30.7297 7.77441C30.8702 8.08199 31.0134 8.38659 31.1508 8.69787C31.2295 8.87574 31.3002 9.06325 31.3704 9.24928C31.6071 9.85923 31.5461 10.1638 31.1368 10.3988C30.9976 10.4781 30.8768 10.4514 30.8522 10.1342C30.7925 9.36564 30.7284 8.59856 30.666 7.83074L30.7297 7.77441Z" fill="white"/>
<path d="M8.43499 2.70212V6.25439H5.13867C5.22387 5.89123 5.29984 5.56217 5.37801 5.23385C5.55851 4.48011 5.73637 3.72415 5.9252 2.97634C5.95331 2.86517 6.03499 2.71472 6.09296 2.71398C6.86807 2.69619 7.64187 2.70212 8.43499 2.70212Z" fill="white"/>
<path d="M5.99155 13.1566C6.08641 13.1462 6.14394 13.1351 6.20147 13.1351C7.42364 13.1351 8.64582 13.1403 9.86799 13.1277C10.0507 13.1277 10.113 13.2166 10.1038 13.5249C10.0906 13.9807 10.0968 14.4388 10.1038 14.896C10.1065 15.1184 10.0718 15.2362 9.92069 15.2355C8.66909 15.2291 7.4175 15.2291 6.1659 15.2355C6.06928 15.2355 5.99023 15.2192 5.99023 15.005C5.99331 14.3987 5.99155 13.7955 5.99155 13.1566Z" fill="white"/>
<path d="M7.92796 7.7447C7.84803 7.7447 7.758 7.78398 7.69125 7.73358C7.65564 7.70542 7.62401 7.66472 7.59849 7.61423C7.57296 7.56374 7.55413 7.50462 7.54326 7.44083C7.53711 7.36672 7.63109 7.20664 7.6895 7.19329C7.84802 7.15456 8.00897 7.15307 8.16774 7.18885C8.23405 7.20367 8.28894 7.3556 8.34867 7.44528C8.28894 7.5483 8.23844 7.68689 8.16598 7.74174C8.09352 7.79658 8.0092 7.75211 7.92928 7.75211L7.92796 7.7447Z" fill="white"/>
<path d="M13.4727 14.9953C13.4742 14.665 13.5534 14.3492 13.6928 14.1174C13.8322 13.8856 14.0205 13.7567 14.2162 13.7591C14.3634 13.7595 14.5071 13.8338 14.6292 13.9724C14.7512 14.1111 14.8461 14.3078 14.9018 14.5377C14.9575 14.7675 14.9714 15.0201 14.9419 15.2634C14.9123 15.5066 14.8405 15.7295 14.7357 15.9038C14.6309 16.0781 14.4977 16.1959 14.3532 16.2422C14.2086 16.2884 14.0592 16.2612 13.9238 16.1638C13.7885 16.0664 13.6733 15.9034 13.593 15.6953C13.5127 15.4872 13.4708 15.2436 13.4727 14.9953Z" fill="white"/>
<path d="M4.05353 15.0271C4.05046 15.7134 3.70923 16.2826 3.31092 16.2648C3.16365 16.2648 3.01971 16.1909 2.8974 16.0525C2.77509 15.9141 2.67992 15.7174 2.62399 15.4875C2.56807 15.2576 2.55391 15.0048 2.58332 14.7613C2.61273 14.5178 2.68438 14.2945 2.78916 14.1199C2.89394 13.9452 3.02712 13.8271 3.17178 13.7805C3.31643 13.7339 3.46603 13.761 3.60155 13.8582C3.73708 13.9555 3.85241 14.1185 3.93289 14.3267C4.01337 14.5348 4.05536 14.7786 4.05353 15.0271Z" fill="white"/>
<path d="M22.9799 12.4036C22.979 12.6556 22.9339 12.9016 22.8503 13.1105C22.7668 13.3195 22.6485 13.4821 22.5103 13.5779C22.3722 13.6737 22.2204 13.6984 22.0739 13.649C21.9274 13.5996 21.7929 13.4782 21.6872 13.3002C21.5815 13.1221 21.5093 12.8952 21.4798 12.6482C21.4503 12.4011 21.4647 12.1448 21.5212 11.9114C21.5777 11.6781 21.6739 11.4782 21.7975 11.3369C21.9212 11.1955 22.0669 11.119 22.2162 11.117C22.3165 11.1163 22.4159 11.1491 22.5087 11.2135C22.6014 11.2778 22.6857 11.3726 22.7567 11.4921C22.8277 11.6117 22.8839 11.7538 22.9222 11.9102C22.9605 12.0666 22.9802 12.2343 22.9799 12.4036Z" fill="white"/>
<path d="M30.5463 14.3906C30.6963 14.3921 30.8427 14.4684 30.967 14.6099C31.0914 14.7514 31.1882 14.9518 31.2453 15.186C31.3023 15.4201 31.3171 15.6774 31.2877 15.9257C31.2584 16.1739 31.1861 16.402 31.0802 16.5811C30.9742 16.7603 30.8392 16.8826 30.6921 16.9326C30.5451 16.9826 30.3925 16.9581 30.2537 16.8622C30.1149 16.7663 29.996 16.6033 29.9119 16.3936C29.8278 16.184 29.7824 15.9371 29.7812 15.6839C29.7823 15.3418 29.8632 15.0142 30.0064 14.7721C30.1496 14.53 30.3436 14.393 30.5463 14.3906Z" fill="white"/>
</g>
<defs>
<clipPath id="clip0_631_2076">
<rect width="34" height="18" fill="white"/>
</clipPath>
</defs>
</svg>
