<svg width="24" height="24" viewBox="0 0 24 24" fill="none" xmlns="http://www.w3.org/2000/svg">
<path d="M19.7148 19.7132H4.28594V4.28667H11.1414V2.57104H2.57031V21.4289H21.4281V14.571H19.7148V19.7132Z" fill="#2463EB"/>
<path d="M9.4293 13.7132H11.1426C11.1426 11.3507 13.0645 9.42651 15.4293 9.42651C17.7941 9.42651 19.716 11.3484 19.716 13.7132H21.4293C21.4293 11.3179 20.0184 9.24605 17.984 8.28511C18.5277 7.67808 18.8582 6.87651 18.8582 5.99995C18.8582 4.1062 17.323 2.57104 15.4293 2.57104C13.5355 2.57104 12.0004 4.1062 12.0004 5.99995C12.0004 6.87886 12.3309 7.68042 12.8746 8.28511C10.8402 9.24839 9.4293 11.3179 9.4293 13.7132ZM15.4293 4.28667C16.3738 4.28667 17.1426 5.05542 17.1426 5.99995C17.1426 6.94448 16.3738 7.71323 15.4293 7.71323C14.4848 7.71323 13.716 6.94448 13.716 5.99995C13.716 5.05542 14.4848 4.28667 15.4293 4.28667ZM5.14258 5.99995H10.2848V7.71323H5.14258V5.99995ZM5.14258 15.4289H18.8559V17.1421H5.14258V15.4289ZM5.14258 9.42886H8.57148V11.1421H5.14258V9.42886Z" fill="#2463EB"/>
</svg>
