<svg width="24" height="24" viewBox="0 0 24 24" fill="none" xmlns="http://www.w3.org/2000/svg">
<g clip-path="url(#clip0_631_2101)">
<path d="M13.6731 3.48193H1.52039C0.940509 3.48193 0.46875 3.95369 0.46875 4.53357V22.913C0.46875 23.4928 0.940509 23.9646 1.52039 23.9646H13.6731C14.253 23.9646 14.7247 23.4928 14.7247 22.913V4.53365C14.7247 3.95369 14.253 3.48193 13.6731 3.48193ZM12.2668 22.1622H2.92662C2.56468 22.1622 2.27118 21.8687 2.27118 21.5068C2.27118 21.1449 2.56468 20.8514 2.92662 20.8514H12.2668C12.6287 20.8514 12.9222 21.1449 12.9222 21.5068C12.9222 21.8687 12.6287 22.1622 12.2668 22.1622ZM12.2668 19.0489H2.92662C2.56468 19.0489 2.27118 18.7554 2.27118 18.3934C2.27118 18.0315 2.56468 17.738 2.92662 17.738H12.2668C12.6287 17.738 12.9222 18.0315 12.9222 18.3934C12.9222 18.7554 12.6287 19.0489 12.2668 19.0489ZM12.2668 15.9355H2.92662C2.56468 15.9355 2.27118 15.642 2.27118 15.28C2.27118 14.9181 2.56468 14.6246 2.92662 14.6246H12.2668C12.6287 14.6246 12.9222 14.9181 12.9222 15.28C12.9222 15.642 12.6287 15.9355 12.2668 15.9355ZM12.2668 12.8221H2.92662C2.56468 12.8221 2.27118 12.5286 2.27118 12.1667C2.27118 11.8047 2.56468 11.5112 2.92662 11.5112H12.2668C12.6287 11.5112 12.9222 11.8047 12.9222 12.1667C12.9222 12.5286 12.6287 12.8221 12.2668 12.8221ZM12.2668 9.7087H2.92662C2.56468 9.7087 2.27118 9.41521 2.27118 9.05327C2.27118 8.69133 2.56468 8.39783 2.92662 8.39783H12.2668C12.6287 8.39783 12.9222 8.69133 12.9222 9.05327C12.9222 9.41521 12.6287 9.7087 12.2668 9.7087ZM12.2668 6.59532H2.92662C2.56468 6.59532 2.27118 6.30182 2.27118 5.93988C2.27118 5.57794 2.56468 5.28445 2.92662 5.28445H12.2668C12.6287 5.28445 12.9222 5.57794 12.9222 5.93988C12.9222 6.30182 12.6287 6.59532 12.2668 6.59532Z" fill="#2463EB"/>
<path d="M17.2645 0H4.63367C4.05371 0 3.58203 0.471759 3.58203 1.05164V2.17116H13.673C14.9757 2.17116 16.0356 3.23096 16.0356 4.53375V20.8515H17.2645C17.8444 20.8515 18.3161 20.3797 18.3161 19.7998V1.05164C18.3161 0.471759 17.8444 0 17.2645 0Z" fill="#2463EB"/>
<path d="M23.533 1.88477C23.5329 0.845579 22.7795 0 21.8534 0C20.9273 0 20.1738 0.845579 20.1738 1.88477V2.98247H23.533V1.88477Z" fill="#2463EB"/>
<path d="M20.1738 4.29346V21.6298C20.1738 21.7268 20.2015 21.8216 20.2533 21.9022L21.459 23.781C21.5468 23.9178 21.6949 24.0001 21.8534 24.0001C22.0119 24.0001 22.16 23.9178 22.2479 23.781L23.4536 21.9022C23.5054 21.8216 23.533 21.7268 23.533 21.6298V4.29346H20.1738Z" fill="#2463EB"/>
</g>
<defs>
<clipPath id="clip0_631_2101">
<rect width="24" height="24" fill="white"/>
</clipPath>
</defs>
</svg>
