<svg width="24" height="24" viewBox="0 0 24 24" fill="none" xmlns="http://www.w3.org/2000/svg">
<g clip-path="url(#clip0_631_2111)">
<path d="M14.7665 11.0544C14.839 11.1148 14.8927 11.1193 14.9365 11.1193C14.9803 11.1193 15.0339 11.1148 15.1064 11.0544C15.1064 11.0544 16.3273 10.172 17.3909 9.10828C18.4433 8.05594 19.6347 6.6908 19.6347 4.69903C19.6347 2.10361 17.5319 0 14.9365 0C12.3411 0 10.2383 2.10361 10.2383 4.69903C10.2383 6.6908 11.4297 8.05594 12.482 9.10828C13.5457 10.172 14.7665 11.0544 14.7665 11.0544ZM14.9365 2.35064C16.2329 2.35064 17.2845 3.40223 17.2845 4.69899C17.2845 5.99574 16.2329 7.04695 14.9365 7.04695C13.6398 7.04695 12.5889 5.99574 12.5889 4.69899C12.5889 3.40223 13.6398 2.35064 14.9365 2.35064Z" fill="#2463EB"/>
<path d="M18.9699 12.5306C18.9699 12.5306 18.6783 13.648 17.3672 15.1211C18.5325 15.4444 19.4065 14.9103 19.4065 14.9103V16.5131H19.8277H20.0865H20.508V14.9103C20.508 14.9103 21.3817 15.4445 22.547 15.1211C21.2359 13.648 20.945 12.5306 20.945 12.5306C21.2359 12.6764 21.77 12.4015 21.77 12.4015C20.6047 11.1062 19.9573 9.29346 19.9573 9.29346C19.9573 9.29346 19.3098 11.1062 18.1441 12.4015C18.1441 12.4015 18.6783 12.6764 18.9699 12.5306Z" fill="#2463EB"/>
<path d="M14.8263 16.5358C9.15309 15.7705 7.99575 15.5903 10.1847 14.1757C11.8037 13.1294 15.3725 12.3569 17.2189 11.7515H13.4151C10.76 12.266 8.41955 12.7147 6.59888 13.5397C6.97059 14.2736 7.50244 15.1764 8.17102 15.919L9.17766 17.0379L7.86769 17.7125C7.95984 17.8716 8.07244 18.0483 8.1952 18.2326C11.2329 19.0021 13.9024 19.285 11.6027 20.555C8.72292 22.1456 6.79008 23.2485 5.0918 23.9999H17.9925C19.2893 23.0155 21.553 21.1722 21.9175 20.0446C22.4331 18.4498 20.737 17.3336 14.8263 16.5358Z" fill="#2463EB"/>
<path d="M5.63098 20.0312C5.63098 20.0312 6.79288 20.7413 8.34233 20.3115C6.59909 18.3525 6.21191 16.8673 6.21191 16.8673C6.59909 17.061 7.3092 16.6954 7.3092 16.6954C5.7598 14.9733 4.89889 12.563 4.89889 12.563C4.89889 12.563 4.03803 14.9733 2.4882 16.6954C2.4882 16.6954 3.19831 17.061 3.58588 16.8673C3.58588 16.8673 3.19831 18.3525 1.45508 20.3115C3.00453 20.7413 4.1668 20.0312 4.1668 20.0312V22.162H4.72662H5.07073H5.63094L5.63098 20.0312Z" fill="#2463EB"/>
</g>
<defs>
<clipPath id="clip0_631_2111">
<rect width="24" height="24" fill="white"/>
</clipPath>
</defs>
</svg>
