<svg width="133" height="132" viewBox="0 0 133 132" fill="none" xmlns="http://www.w3.org/2000/svg">
<rect x="0.5" width="132" height="132" rx="66" fill="#FFFEFE"/>
<path d="M33.8715 69.9123C32.0095 69.9123 30.5 71.4219 30.5 73.2845V93.0222C30.5 94.8842 32.0096 96.3937 33.8715 96.3937H39.5994C41.4615 96.3937 42.9572 94.8841 42.9572 93.0215L42.9579 73.2838C42.9579 71.4218 41.4621 69.9116 39.6001 69.9116L33.8715 69.9123Z" fill="#2463EB"/>
<path d="M100.889 78.4063C100.564 77.0943 99.7316 76.0219 98.5608 75.3588C97.3899 74.6959 96.0352 74.5404 94.7514 74.9217L79.2932 79.5733C79.6956 80.6628 79.7678 81.8836 79.3812 83.0821C78.6481 85.3484 76.5569 86.8009 74.2834 86.8009C73.8108 86.8009 73.331 86.7373 72.8545 86.608L57.7593 82.4738C57.0072 82.267 56.5648 81.4912 56.7703 80.7405C56.977 79.9883 57.758 79.5512 58.5036 79.7513L73.6001 83.885C74.9272 84.246 76.276 83.5103 76.6961 82.214C77.1207 80.8954 76.4316 79.4981 75.1268 79.034C74.9115 78.9572 58.7183 73.0168 58.7183 73.0168C58.549 72.9465 58.3659 72.9183 58.1683 72.9321L47.1215 73.4821C46.3739 73.5248 45.7812 74.145 45.7812 74.8932V91.7392C45.7812 92.3739 46.2046 92.9246 46.811 93.1077L69.2438 99.4564C69.3705 99.4984 69.4978 99.5129 69.6245 99.5129C69.8502 99.5129 70.0898 99.4564 70.3018 99.3435L98.5044 83.8947C100.099 83.0342 101.044 81.3698 101.044 79.62C101.044 79.2111 100.987 78.816 100.889 78.4071L100.889 78.4063Z" fill="#2463EB"/>
<path d="M87.8097 31C82.3214 31 80.8119 31.804 79.6127 32.4531C78.9498 32.8056 78.6111 32.9749 77.3555 33.0031C74.6606 32.9894 72.9397 31.4089 72.9252 31.3951C72.4599 30.9435 71.7399 30.8733 71.1899 31.2258C70.6399 31.5782 70.3996 32.2556 70.6116 32.8765L73.3059 40.5655H86.455L89.1499 32.8765C89.3048 32.4393 89.2346 31.9733 88.9668 31.5927C88.6984 31.2258 88.2757 31 87.8097 31Z" fill="#2463EB"/>
<path d="M79.8782 72.7337C83.645 72.7337 95.0732 72.7337 95.0732 61.8983C95.0732 56.5511 92.0258 48.0436 87.1441 43.3872L72.6128 43.3879C67.7309 48.0439 64.6836 56.5514 64.6836 61.8989C64.6843 72.7337 76.1263 72.7337 79.8786 72.7337L79.8782 72.7337ZM79.5402 57.7928C75.5614 56.805 74.7292 54.8018 74.7292 53.2923C74.7292 51.2182 76.3235 49.4829 78.4677 48.9467V47.3098C78.4677 46.534 79.1024 45.8987 79.8789 45.8987C80.6547 45.8987 81.29 46.5334 81.29 47.3098V48.9467C83.4487 49.483 85.0285 51.2184 85.0285 53.2923C85.0285 54.0681 84.3938 54.7034 83.6174 54.7034C82.8416 54.7034 82.2063 54.0688 82.2063 53.2923C82.2063 52.361 81.1482 51.5714 79.8783 51.5714C78.6227 51.5714 77.5503 52.3617 77.5503 53.2923C77.5503 54.2375 79.2292 54.8019 80.217 55.0421C83.4056 55.8461 85.028 57.3558 85.028 59.5426C85.028 61.6167 83.4476 63.352 81.2895 63.8882V65.5251C81.2895 66.3009 80.6548 66.9362 79.8784 66.9362C79.1026 66.9362 78.4673 66.3015 78.4673 65.5251V63.8882C76.323 63.352 74.7288 61.6165 74.7288 59.5426C74.7288 58.7668 75.3634 58.1315 76.1399 58.1315C76.9157 58.1315 77.551 58.7662 77.551 59.5426C77.551 60.474 78.6235 61.2635 79.879 61.2635C81.149 61.2635 82.2069 60.4733 82.2069 59.5426C82.2063 58.6395 80.7531 58.0895 79.5402 57.7928Z" fill="#2463EB"/>
</svg>
