<svg width="133" height="132" viewBox="0 0 133 132" fill="none" xmlns="http://www.w3.org/2000/svg">
<rect x="0.5" width="132" height="132" rx="66" fill="#FFFEFE"/>
<path d="M86.0823 81.1209C85.4907 79.5651 84.1884 78.3883 82.5815 77.9563C80.9746 77.5242 79.2574 77.8894 77.9654 78.9382C76.6735 79.9865 75.9627 81.5915 76.0548 83.253C76.1454 84.5499 76.7139 85.767 77.6499 86.6686C78.5865 87.5697 79.8238 88.0919 81.1231 88.1328C82.8408 88.1662 84.4635 87.3468 85.4567 85.9446C86.4494 84.5424 86.6837 82.7401 86.0822 81.1307L86.0823 81.1209ZM80.6172 85.0882C80.2432 84.9844 79.9031 84.7826 79.6329 84.5035C79.3627 84.2245 79.1717 83.8785 79.0802 83.501C78.9641 83.059 78.9847 82.592 79.1398 82.1623C79.343 81.6229 79.7486 81.1844 80.2708 80.9398C80.7925 80.6952 81.3894 80.6642 81.9338 80.8531C82.4781 81.0416 82.9274 81.4359 83.1858 81.9507C83.4442 82.466 83.4915 83.0615 83.3172 83.6108C83.1435 84.1605 82.7616 84.6202 82.2537 84.8924C81.7458 85.1646 81.1512 85.2276 80.5975 85.0681L80.6172 85.0882Z" fill="#2463EB"/>
<path d="M53.4612 81.1209C52.8696 79.5651 51.5673 78.3883 49.9604 77.9563C48.353 77.5242 46.6363 77.8894 45.3443 78.9382C44.0519 79.9865 43.3417 81.5915 43.4338 83.253C43.5268 84.5533 44.1006 85.7719 45.0431 86.6721C45.9851 87.5723 47.2288 88.0895 48.5316 88.1231C50.2498 88.1565 51.8725 87.3371 52.8652 85.9349C53.8584 84.5327 54.0927 82.7299 53.4913 81.121L53.4612 81.1209ZM48.0158 85.0882H48.0163C47.6413 84.9868 47.3002 84.787 47.028 84.5099C46.7563 84.2324 46.5629 83.8878 46.4689 83.5108C46.3547 83.0679 46.3788 82.6008 46.5383 82.1721C46.7421 81.6376 47.1461 81.2031 47.6644 80.9614C48.1826 80.7193 48.7752 80.6887 49.3155 80.8758C49.8564 81.0628 50.3028 81.4531 50.5607 81.9639C50.8186 82.4743 50.8678 83.0654 50.6975 83.6117C50.5273 84.158 50.1512 84.6162 49.6487 84.8903C49.1467 85.164 48.5571 85.2314 48.0059 85.0778L48.0158 85.0882Z" fill="#2463EB"/>
<path d="M92.1336 76.1013H92.5106V74.4545H61.5953V64.0501C61.5899 63.1849 61.2414 62.357 60.6257 61.7487C60.01 61.1404 59.1778 60.8018 58.3126 60.8072H49.3861C48.7837 60.8057 48.2015 61.0213 47.7462 61.415C47.2904 61.8087 46.9922 62.3536 46.906 62.9491L45.4187 70.3681L40.7672 71.3598L40.7667 71.3603C39.7081 71.5754 38.7562 72.1502 38.0726 72.9874C37.3894 73.8241 37.0164 74.8719 37.0178 75.9522V76.1308H36.6507C36.3544 76.12 36.066 76.2283 35.8499 76.4315C35.6339 76.6343 35.5079 76.9153 35.5 77.2121V78.3426C35.5 78.9563 35.9976 79.4534 36.6108 79.4534H36.978V81.0604H41.937C42.4823 79.1281 43.8461 77.531 45.6696 76.6909C47.4926 75.8503 49.5927 75.8503 51.4161 76.6909C53.2391 77.531 54.6029 79.1281 55.1482 81.0604H74.5488C75.0858 79.1168 76.4506 77.508 78.2799 76.6604C80.1097 75.8129 82.2193 75.8129 84.0486 76.6604C85.8784 77.5079 87.2428 79.1168 87.7797 81.0604H92.4415V79.4534H92.1437C91.4886 79.448 90.9591 78.9184 90.9537 78.2634V77.2121C90.9532 76.905 91.0796 76.6112 91.3031 76.401C91.527 76.1904 91.8277 76.0821 92.1339 76.1013L92.1336 76.1013ZM57.6375 72.3023H47.8882C47.5569 72.3042 47.2415 72.1591 47.0274 71.9066C46.8128 71.6541 46.7213 71.3199 46.7769 70.9931L48.1953 63.1179C48.2785 62.551 48.7633 62.1297 49.3362 62.1262H55.4655L58.6095 70.4079C58.7015 70.6485 58.7488 70.904 58.7483 71.1619C58.7537 71.4606 58.6395 71.7495 58.4308 71.9636C58.2222 72.1777 57.9368 72.2998 57.6375 72.3023Z" fill="#2463EB"/>
<path d="M89.0582 66.3518C89.1473 66.3518 91.0416 65.5284 92.4699 64.7946V73.1162H62.9531V55.9179C62.9531 55.0684 63.2908 54.2534 63.8917 53.6529C64.4921 53.052 65.3071 52.7144 66.1567 52.7144H76.0153V54.6978L76.0158 54.6983C76.0153 58.7164 78.1439 62.4341 81.6097 64.4678C82.1156 64.7655 83.4444 65.3901 85.577 66.3326L87.303 67.0964L89.0582 66.3518Z" fill="#2463EB"/>
<path d="M92.6775 46.0085L89.4145 45.0168C88.0557 44.5881 86.5974 44.5881 85.2384 45.0168L81.9754 46.0085C81.5152 46.1547 81.1136 46.4446 80.8301 46.8354C80.5462 47.2262 80.3951 47.6977 80.3985 48.181V54.6973C80.4103 57.1454 81.7101 59.4064 83.8205 60.648C84.3658 60.9655 87.3414 62.2845 87.3414 62.2845C87.3414 62.2845 89.7614 61.2927 90.8427 60.648C92.9453 59.3994 94.243 57.1429 94.2642 54.6973V48.181C94.2672 47.6967 94.1146 47.2242 93.8291 46.833C93.5432 46.4422 93.1396 46.1532 92.6775 46.0085ZM92.0328 51.4441L86.4191 57.1074C86.2119 57.3166 85.9299 57.4347 85.6355 57.4347C85.3407 57.4347 85.0587 57.3166 84.8515 57.1074L82.6298 54.8857C82.2002 54.4556 82.2002 53.7582 82.6298 53.3286C83.06 52.8984 83.7574 52.8984 84.187 53.3286L85.6153 54.7568L90.4454 49.9267V49.9262C90.8736 49.5409 91.5267 49.5507 91.9431 49.9489C92.3595 50.347 92.3985 50.9992 92.0328 51.4441Z" fill="#2463EB"/>
<path d="M87.3018 65.2204L86.2506 64.7543C85.09 64.2386 83.047 63.3261 82.4619 62.9791C79.5173 61.2511 77.7095 58.0914 77.711 54.6772V48.181C77.7046 47.1312 78.0319 46.1065 78.6447 45.2545C79.2579 44.4026 80.1256 43.7672 81.1227 43.44L84.3857 42.4482V42.4478C86.2737 41.8507 88.2999 41.8507 90.1879 42.4478L93.4509 43.4395L93.4514 43.44C94.4727 43.7446 95.3684 44.3702 96.0062 45.2245C96.6441 46.0785 96.9896 47.115 96.992 48.181V54.6973C96.9797 58.1075 95.1754 61.2604 92.2412 62.9987C90.994 63.6671 89.7129 64.2695 88.4027 64.804L87.3018 65.2204ZM87.3018 43.4007C86.4676 43.3997 85.6378 43.5267 84.842 43.7777L81.579 44.7694C80.857 44.9958 80.228 45.451 79.7875 46.0668C79.3475 46.6825 79.1197 47.4246 79.1393 48.1816V54.6979C79.1389 57.5904 80.6714 60.2662 83.1663 61.7299C83.5433 61.9479 84.9021 62.5927 86.8064 63.4358L87.2823 63.6439L87.7681 63.4456C89.0132 62.9367 90.2319 62.3638 91.418 61.7299C93.9025 60.2559 95.4312 57.5863 95.4449 54.6979V48.1816C95.4508 47.4389 95.219 46.7144 94.7834 46.113C94.3484 45.5116 93.7322 45.0652 93.0249 44.8388L89.7619 43.8471C88.9779 43.5858 88.1584 43.445 87.3321 43.4307L87.3018 43.4007Z" fill="#2463EB"/>
</svg>
