<svg width="133" height="132" viewBox="0 0 133 132" fill="none" xmlns="http://www.w3.org/2000/svg">
<rect x="0.5" width="132" height="132" rx="66" fill="#FFFEFE"/>
<path d="M93.5 54.8834L78.6164 40L72.6864 45.9274L68.4534 41.6945L58.9333 51.2145L68.8191 61.0957L56.5959 73.3188L46.7146 63.4331L37.1945 72.9531L41.4275 77.1861L35.5 83.1161L50.384 98L56.3141 92.0726L60.5471 96.3055L70.0666 86.7848L60.1808 76.9037L72.404 64.6805L82.2853 74.5663L91.8053 65.0462L87.5724 60.8133L93.5 54.8834ZM78.616 47.1852L86.3142 54.8834L83.9792 57.2184L76.281 49.5202L78.616 47.1852ZM50.3826 90.8154L42.6843 83.1172L45.0193 80.7822L52.7176 88.4805L50.3826 90.8154ZM62.8806 86.786L60.5456 89.121L44.3786 72.9541L46.7136 70.6191L53.0018 76.9046L56.5944 80.4972L62.8806 86.786ZM82.2849 67.3819L75.9968 61.0963L72.4041 57.5037L66.1179 51.215L68.4529 48.88L84.6199 65.0469L82.2849 67.3819Z" fill="#2463EB"/>
</svg>
