<svg width="133" height="132" viewBox="0 0 133 132" fill="none" xmlns="http://www.w3.org/2000/svg">
<rect x="0.5" width="132" height="132" rx="66" fill="#FFFEFE"/>
<path d="M91.8728 80.3012H71.2615C69.8397 80.3012 68.6819 79.1427 68.6819 77.7216C68.6819 76.2998 69.8403 75.142 71.2615 75.142H76.7897V72.5098H71.2615C68.3922 72.5098 66.0492 74.8523 66.0492 77.7221C66.0492 80.5914 68.3917 82.9344 71.2615 82.9344H91.859C93.4384 82.9344 94.7153 84.2242 94.7153 85.7907C94.7153 87.3567 93.4255 88.6471 91.859 88.6471L52.6641 88.6451V91.2772H91.859C94.8865 91.2772 97.3475 88.8163 97.3475 85.7887C97.3475 82.7618 94.8993 80.3009 91.8724 80.3009L91.8728 80.3012Z" fill="#2463EB"/>
<path d="M52.6627 40.0132C43.1862 40.0132 35.5 47.6994 35.5 57.1759C35.5 66.6524 52.6627 84.1306 52.6627 84.1306C52.6627 84.1306 69.8254 66.6522 69.8254 57.1759C69.8389 47.7001 62.1526 40.0132 52.6627 40.0132ZM52.6627 65.2713C48.2006 65.2713 44.5684 61.6518 44.5684 57.1769C44.5684 52.7148 48.1878 49.0826 52.6627 49.0826C57.1248 49.0826 60.757 52.7021 60.757 57.1769C60.757 61.6518 57.1376 65.2713 52.6627 65.2713Z" fill="#2463EB"/>
<path d="M76.7897 46.0153C79.7378 46.0153 82.1334 48.4111 82.1334 51.359C82.1334 54.3069 79.7376 56.7027 76.7897 56.7027C74.8284 56.7027 73.1304 55.6365 72.1962 54.057C72.3545 55.0707 72.4596 56.1106 72.4596 57.1634C72.4596 58.8876 71.9989 60.7963 71.2358 62.7705C74.0262 66.3638 76.7769 69.1671 76.7769 69.1671C76.7769 69.1671 88.1224 57.6108 88.1224 51.3455C88.1224 45.0804 83.042 40 76.7769 40C73.1176 40 69.8673 41.7377 67.8008 44.4359C69.4199 46.3575 70.6701 48.5821 71.4728 51.0169C71.6567 48.2257 73.9595 46.0146 76.7896 46.0146L76.7897 46.0153Z" fill="#2463EB"/>
</svg>
