<svg width="133" height="132" viewBox="0 0 133 132" fill="none" xmlns="http://www.w3.org/2000/svg">
<rect x="0.5" width="132" height="132" rx="66" fill="#FFFEFE"/>
<path fill-rule="evenodd" clip-rule="evenodd" d="M43.835 56.1383C40.1014 57.7128 37.5 61.3125 37.5 65.4991C37.5 71.127 42.2245 75.7072 48.0542 75.7072L83.9462 75.7087C89.788 75.7087 94.5 71.1369 94.5 65.5001C94.5 61.3125 91.8816 57.7048 88.1423 56.1328C88.1583 55.855 88.1671 55.5753 88.1671 55.2921C88.1671 47.3988 81.55 41 73.3881 41C68.5371 41 64.2322 43.2599 61.5368 46.7517C59.7655 45.6932 57.6771 45.0838 55.443 45.0838C49.0915 45.0838 43.9286 50.0162 43.834 56.139H43.8356L43.835 56.1383ZM79.7231 79.7913C80.8889 79.7913 81.8353 80.698 81.8353 81.833C81.8353 82.9589 80.8972 83.8741 79.7231 83.8741C78.5577 83.8741 77.6119 82.9674 77.6119 81.833C77.6119 80.705 78.55 79.7913 79.7231 79.7913ZM73.39 85.9157C74.5564 85.9157 75.5012 86.8234 75.5012 87.9584C75.5012 89.0858 74.5637 90 73.39 90C72.2247 90 71.2789 89.0933 71.2789 87.9584C71.2789 86.8309 72.2169 85.9157 73.39 85.9157ZM64.9444 79.7913C66.1108 79.7913 67.0566 80.698 67.0566 81.833C67.0566 82.9589 66.1191 83.8741 64.9444 83.8741C63.7791 83.8741 62.8332 82.9674 62.8332 81.833C62.8332 80.705 63.7708 79.7913 64.9444 79.7913ZM58.6125 85.9157C59.7778 85.9157 60.7231 86.8234 60.7231 87.9584C60.7231 89.0858 59.7856 90 58.6125 90C57.4466 90 56.5013 89.0933 56.5013 87.9584C56.5013 86.8309 57.4378 85.9157 58.6125 85.9157ZM52.278 79.7913C53.4433 79.7913 54.3892 80.698 54.3892 81.833C54.3892 82.9589 53.4511 83.8741 52.278 83.8741C51.1121 83.8741 50.1658 82.9674 50.1658 81.833C50.1658 80.705 51.1038 79.7913 52.278 79.7913Z" fill="#2463EB"/>
</svg>
