<svg width="66" height="57" viewBox="0 0 66 57" fill="none" xmlns="http://www.w3.org/2000/svg">
<path d="M22.8718 28.3887C25.5733 28.3887 27.9599 29.257 29.899 30.3926C31.689 31.4613 32.816 33.866 32.816 36.4711V40.0781H12.9276V36.4934C12.9276 33.866 14.0546 31.4613 15.8446 30.4148C17.7837 29.257 20.1703 28.3887 22.8718 28.3887ZM9.61286 28.9453C11.436 28.9453 12.9276 26.9414 12.9276 24.4922C12.9276 22.043 11.436 20.0391 9.61286 20.0391C7.78976 20.0391 6.29813 22.043 6.29813 24.4922C6.29813 26.9414 7.78976 28.9453 9.61286 28.9453ZM11.4857 31.3945C10.8725 31.2609 10.2592 31.1719 9.61286 31.1719C7.97207 31.1719 6.41415 31.6395 5.00539 32.4633C3.77893 33.1758 2.9834 34.7789 2.9834 36.5824V40.0781H10.4415V36.4934C10.4415 34.6453 10.8227 32.9086 11.4857 31.3945ZM36.1307 28.9453C37.9538 28.9453 39.4455 26.9414 39.4455 24.4922C39.4455 22.043 37.9538 20.0391 36.1307 20.0391C34.3076 20.0391 32.816 22.043 32.816 24.4922C32.816 26.9414 34.3076 28.9453 36.1307 28.9453ZM42.7602 36.5824C42.7602 34.7789 41.9647 33.1758 40.7382 32.4633C39.3294 31.6395 37.7715 31.1719 36.1307 31.1719C35.4843 31.1719 34.8711 31.2609 34.2579 31.3945C34.9208 32.9086 35.302 34.6453 35.302 36.4934V40.0781H42.7602V36.5824ZM22.8718 13.3594C25.623 13.3594 27.8439 16.343 27.8439 20.0391C27.8439 23.7352 25.623 26.7188 22.8718 26.7188C20.1206 26.7188 17.8997 23.7352 17.8997 20.0391C17.8997 16.343 20.1206 13.3594 22.8718 13.3594Z" fill="#2463EB"/>
</svg>
