<svg width="66" height="64" viewBox="0 0 66 64" fill="none" xmlns="http://www.w3.org/2000/svg">
<path d="M34.3877 23.5041L25.4904 32.4418L22.2551 29.2064C21.6687 28.62 20.6981 28.62 20.1117 29.2064C19.5252 29.7928 19.5252 30.7634 20.1117 31.3498L24.3985 35.6367C24.9849 36.2231 25.9555 36.2231 26.5419 35.6367L36.5311 25.6475C37.1175 25.0611 37.1175 24.0905 36.5311 23.5041C35.9447 22.9177 34.9741 22.9177 34.3877 23.5041ZM47.0056 13.1914L40.7775 8.01477C39.9283 7.30703 38.6543 7.40814 37.9264 8.27764C37.2186 9.12693 37.34 10.4009 38.1893 11.1288L44.3971 16.3054C45.2464 17.0131 46.5203 16.912 47.2483 16.0425C47.9762 15.1932 47.8549 13.9193 47.0056 13.1914ZM12.4681 16.3054L18.676 11.1288C19.5455 10.4009 19.6668 9.12693 18.9388 8.27764C18.2311 7.40814 16.9572 7.30703 16.1079 8.01477L9.87982 13.1914C9.03054 13.9193 8.90921 15.1932 9.63717 16.0425C10.3449 16.912 11.6188 17.0131 12.4681 16.3054ZM28.4427 11.149C18.3929 11.149 10.2438 19.2981 10.2438 29.348C10.2438 39.3978 18.3929 47.5469 28.4427 47.5469C38.4926 47.5469 46.6416 39.3978 46.6416 29.348C46.6416 19.2981 38.4926 11.149 28.4427 11.149ZM28.4427 43.5027C20.6374 43.5027 14.288 37.1533 14.288 29.348C14.288 21.5426 20.6374 15.1932 28.4427 15.1932C36.248 15.1932 42.5974 21.5426 42.5974 29.348C42.5974 37.1533 36.248 43.5027 28.4427 43.5027Z" fill="#2463EB"/>
</svg>
