<svg width="67" height="64" viewBox="0 0 67 64" fill="none" xmlns="http://www.w3.org/2000/svg">
<g clip-path="url(#clip0_1_1264)">
<path d="M31.9059 8.16667C35.8615 8.16667 37.3282 10.0556 37.4615 12.8333H42.3726C42.2171 9.01111 39.8837 5.5 35.2393 4.36667V-0.5H28.5726V4.3C27.3948 4.56667 26.2837 4.96667 25.2837 5.5L28.5504 8.76667C29.4615 8.38889 30.5726 8.16667 31.9059 8.16667ZM15.9726 1.85556L13.1504 4.67778L20.7948 12.3222C20.7948 16.9444 24.2615 19.4556 29.4837 21.0111L37.2837 28.8111C36.5282 29.8778 34.9504 30.8333 31.9059 30.8333C27.3282 30.8333 25.5282 28.7889 25.2837 26.1667H20.3948C20.6615 31.0333 24.3059 33.7667 28.5726 34.6778V39.5H35.2393V34.7222C37.3726 34.3222 39.2837 33.5 40.6837 32.2333L45.6171 37.1667L48.4393 34.3444L15.9726 1.85556Z" fill="#2463EB"/>
</g>
<defs>
<clipPath id="clip0_1_1264">
<rect width="66.3704" height="64" fill="white"/>
</clipPath>
</defs>
</svg>
