<svg width="64" height="64" viewBox="0 0 64 64" fill="none" xmlns="http://www.w3.org/2000/svg">
<path d="M45.074 15.6109L44.9474 15.5305L44.867 15.6571L43.8363 17.2799L43.7559 17.4066L43.8825 17.487L44.7266 18.0231L44.8532 18.1035L44.9337 17.9769L45.9643 16.354L46.0448 16.2274L45.9181 16.147L45.074 15.6109Z" fill="#2463EB" stroke="#0B59FF" stroke-width="0.3"/>
<path d="M24.3844 48.3425L24.5348 48.3429V48.3359C24.9066 48.3146 25.2698 48.2108 25.5976 48.0313C25.9695 47.8277 26.2839 47.5333 26.5113 47.1755L26.5117 47.1749L38.9742 27.3624L39.0541 27.2353L38.9271 27.1555L38.0796 26.623L37.9526 26.5432L37.8728 26.6701L25.4103 46.4826L25.4094 46.484C25.3258 46.6202 25.216 46.7384 25.0863 46.8317C24.9566 46.925 24.8096 46.9916 24.654 47.0276C24.4983 47.0636 24.337 47.0683 24.1795 47.0414C24.022 47.0145 23.8715 46.9565 23.7366 46.8708C23.6017 46.7852 23.4852 46.6736 23.3938 46.5425C23.3025 46.4114 23.2381 46.2634 23.2045 46.1072C23.1709 45.951 23.1686 45.7897 23.1979 45.6326C23.2272 45.4756 23.2875 45.3259 23.3751 45.1923L23.3752 45.1923L23.3766 45.1901L24.2716 43.7726L24.3516 43.6459L24.225 43.5658L23.38 43.0308L23.2535 42.9507L23.1732 43.077L22.2732 44.492L22.2731 44.4922C22.0329 44.8709 21.8987 45.3071 21.8845 45.7553C21.8702 46.2036 21.9764 46.6474 22.1921 47.0406C22.4077 47.4338 22.7248 47.762 23.1104 47.991C23.496 48.22 23.9359 48.3414 24.3844 48.3425Z" fill="#2463EB" stroke="#0B59FF" stroke-width="0.3"/>
<path d="M38.7304 26.4475L38.7671 26.4707C39.4397 26.8963 40.0212 27.451 40.478 28.1028C40.9348 28.7544 41.2578 29.4902 41.4284 30.2675M38.7304 26.4475L41.2819 30.3M38.7304 26.4475H38.728C38.0668 26.0314 37.3307 25.748 36.561 25.6132C35.7768 25.4759 34.9732 25.4956 34.1967 25.6711C33.9701 25.7217 33.7467 25.7852 33.5276 25.8611C34.6046 24.3633 36.0609 22.5871 37.769 21.1297C39.61 19.5588 41.7278 18.3718 43.9671 18.2832M38.7304 26.4475L43.9671 18.2832M41.4284 30.2675C41.4284 30.2676 41.4284 30.2677 41.4284 30.2678L41.2819 30.3M41.4284 30.2675C41.4283 30.2674 41.4283 30.2673 41.4283 30.2672L41.2819 30.3M41.4284 30.2675C41.4791 30.4943 41.5169 30.7236 41.5415 30.9544M41.2819 30.3C41.3472 30.5917 41.3905 30.8877 41.4114 31.1857C41.4545 31.1097 41.4979 31.0326 41.5415 30.9544M41.5415 30.9544C41.5509 31.0429 41.5585 31.1316 41.564 31.2205L44.0681 18.2799C44.0344 18.2808 44.0008 18.2818 43.9671 18.2832M41.5415 30.9544C42.4393 29.3441 43.4283 27.2684 44.0219 25.101C44.6617 22.7651 44.8369 20.3428 43.9671 18.2832M44.7326 17.0785L44.7323 17.0784C40.9546 14.6788 36.3783 13.8781 32.0102 14.8526C27.6421 15.8271 23.84 18.4968 21.4403 22.2746L21.3572 22.4053C21.3288 22.4442 21.3004 22.4837 21.2752 22.5209L21.1894 22.6477L21.3179 22.7309L22.1679 23.2809L22.295 23.3631L22.3761 23.2353C23.0282 22.2076 24.0494 21.4689 25.2296 21.1712C26.4098 20.8735 27.6592 21.0395 28.7208 21.635C29.7823 22.2305 30.5753 23.2103 30.9364 24.3726C31.2971 25.5334 31.1997 26.7881 30.6645 27.8793C30.5862 28.0148 30.524 28.1268 30.4777 28.2111C30.4633 28.2373 30.4507 28.2603 30.4397 28.2803C30.414 28.3274 30.3975 28.3575 30.3883 28.3728L30.307 28.5083L30.4466 28.5825L30.8838 28.8147L31.2988 29.079L31.4255 29.1597L31.506 29.0329C31.841 28.5054 32.2766 28.049 32.788 27.6898C33.2994 27.3306 33.8765 27.0756 34.4863 26.9395C35.0962 26.8033 35.727 26.7886 36.3426 26.8962C36.9581 27.0038 37.5465 27.2316 38.074 27.5666C38.6015 27.9016 39.0579 28.3372 39.4171 28.8486C39.7763 29.3599 40.0313 29.937 40.1674 30.5469C40.3036 31.1568 40.3183 31.7875 40.2107 32.4031C40.1031 33.0187 39.8753 33.607 39.5403 34.1346L39.4598 34.2614L39.5867 34.3417L40.0042 34.606L40.3994 34.9025L40.5204 34.9932L40.6102 34.8715C40.6139 34.8664 40.6186 34.8601 40.6242 34.8525C40.6712 34.789 40.7842 34.6365 40.9448 34.4047C41.7052 33.4567 42.7995 32.8356 44.0034 32.669C45.209 32.5021 46.4327 32.8036 47.4228 33.5114C48.4129 34.2193 49.094 35.2797 49.3261 36.4744C49.5581 37.6692 49.3235 38.9075 48.6703 39.9345L48.5897 40.0613L48.7167 40.1417L49.5617 40.6767L49.6894 40.7576L49.7693 40.6293C49.8245 40.5405 49.8781 40.4518 49.9301 40.363C52.3202 36.5842 53.1156 32.0123 52.1418 27.6483C51.1678 23.2835 48.5035 19.4826 44.7326 17.0785ZM27.431 19.8132C26.6718 19.6803 25.8944 19.6945 25.1411 19.8548C27.3922 17.7859 30.206 16.4221 33.2338 15.94C36.3094 15.4503 39.4577 15.8941 42.2737 17.2086C40.1292 17.7142 38.1704 18.9886 36.4929 20.4949C34.836 21.9828 33.4447 23.7049 32.4103 25.1593C32.3239 24.3239 32.0644 23.5139 31.6467 22.7816C31.158 21.9247 30.4675 21.2002 29.6351 20.671C28.9643 20.2421 28.2152 19.9505 27.431 19.8132ZM47.8973 32.2709L47.8605 32.2475H47.8577C47.0341 31.7334 46.0988 31.4247 45.1305 31.3477C44.2905 31.2808 43.4475 31.3901 42.6548 31.6667C43.5311 30.1119 44.4979 28.1202 45.1402 25.987C45.7904 23.8275 46.1115 21.5115 45.6586 19.3536C48.0424 21.3457 49.78 24.0069 50.6432 26.9981C51.4935 29.9441 51.4556 33.071 50.5412 35.9888C50.3848 35.3252 50.1171 34.6914 49.7479 34.1149C49.2728 33.3727 48.6412 32.7434 47.8973 32.2709Z" fill="#2463EB" stroke="#0B59FF" stroke-width="0.3"/>
<path d="M39.1319 49.5574L39.1324 49.5574C40.7572 49.5527 42.3142 48.9051 43.4631 47.7561C44.6121 46.6072 45.2597 45.0502 45.2644 43.4253V43.4249C45.2644 42.212 44.9047 41.0263 44.2309 40.0178C43.5571 39.0094 42.5993 38.2233 41.4787 37.7592C40.3582 37.295 39.1251 37.1736 37.9355 37.4102C36.7459 37.6468 35.6532 38.2309 34.7956 39.0886C33.9379 39.9462 33.3539 41.0389 33.1173 42.2285C32.8806 43.4181 33.0021 44.6511 33.4662 45.7717C33.9304 46.8923 34.7164 47.85 35.7249 48.5239C36.7334 49.1977 37.919 49.5574 39.1319 49.5574ZM36.4471 39.4068C37.2417 38.8759 38.176 38.5924 39.1316 38.5924C40.412 38.5969 41.6386 39.1075 42.5439 40.0129C43.4493 40.9182 43.9599 42.1448 43.9644 43.4251C43.9644 44.3808 43.6809 45.315 43.15 46.1097C42.619 46.9044 41.8643 47.5238 40.9812 47.8895C40.0982 48.2553 39.1266 48.351 38.1891 48.1645C37.2517 47.9781 36.3907 47.5178 35.7148 46.842C35.039 46.1661 34.5787 45.3051 34.3923 44.3677C34.2058 43.4302 34.3015 42.4586 34.6673 41.5756C35.033 40.6925 35.6524 39.9378 36.4471 39.4068Z" fill="#2463EB" stroke="#0B59FF" stroke-width="0.3"/>
<path d="M39.4276 47.1095H39.5776V46.9595V46.1595C40.0141 46.1021 40.3755 45.941 40.6358 45.6912C40.8979 45.4396 41.0481 45.1067 41.0737 44.7251L41.0876 44.7217V44.6045C41.0876 44.0627 40.8867 43.7065 40.5491 43.4522C40.2262 43.209 39.7824 43.0635 39.3138 42.9143C38.9903 42.8077 38.7316 42.7089 38.554 42.5878C38.3833 42.4714 38.3051 42.3475 38.3051 42.1845C38.3051 42.004 38.3774 41.8728 38.5004 41.7821C38.628 41.688 38.8215 41.6301 39.0692 41.6295C39.5082 41.6503 39.9315 41.7993 40.2867 42.0583L40.4021 42.1423L40.4918 42.0313L40.8793 41.5513L40.978 41.4289L40.8512 41.336C40.4764 41.0615 40.0483 40.8692 39.5951 40.7712V39.8945V39.7445H39.4451H38.9276H38.7776V39.8945V40.7331C38.3431 40.779 37.989 40.9367 37.7359 41.1825C37.4549 41.4555 37.3101 41.8257 37.3101 42.237C37.3101 42.75 37.5298 43.0891 37.863 43.3291C38.1839 43.5601 38.612 43.7003 39.029 43.8348L39.029 43.8348L39.0322 43.8358C39.3906 43.9427 39.6563 44.0386 39.8332 44.1664C39.9972 44.2849 40.0826 44.4285 40.0826 44.6545C40.0826 44.8484 39.9995 44.9969 39.8574 45.1015C39.7113 45.2091 39.4958 45.2742 39.2343 45.2745C38.7098 45.2622 38.21 45.0488 37.8385 44.6783L37.7224 44.5626L37.6174 44.6884L37.2149 45.1709L37.1261 45.2774L37.2252 45.3743C37.6455 45.7851 38.182 46.0548 38.7601 46.1479V46.9595V47.1095H38.9101H39.4276Z" fill="#2463EB" stroke="#0B59FF" stroke-width="0.3"/>
<path d="M24.4243 37.2104H24.4244C25.7726 37.2091 27.0651 36.6729 28.0184 35.7196C28.9717 34.7663 29.5079 33.4738 29.5093 32.1256V32.1254C29.5093 31.1197 29.211 30.1366 28.6523 29.3004C28.0935 28.4641 27.2994 27.8124 26.3702 27.4275C25.441 27.0426 24.4186 26.9419 23.4322 27.1381C22.4458 27.3343 21.5398 27.8186 20.8286 28.5298C20.1175 29.2409 19.6332 30.147 19.437 31.1334C19.2408 32.1198 19.3415 33.1422 19.7263 34.0714C20.1112 35.0005 20.763 35.7947 21.5992 36.3535C22.4354 36.9122 23.4185 37.2104 24.4243 37.2104ZM22.3214 28.9783C22.9438 28.5624 23.6756 28.3405 24.4242 28.3404C25.4276 28.3417 26.3896 28.7409 27.0992 29.4505C27.8088 30.1601 28.208 31.1221 28.2093 32.1256C28.2092 32.8742 27.9872 33.6059 27.5714 34.2283C27.1555 34.8507 26.5643 35.3358 25.8727 35.6223C25.1811 35.9088 24.4201 35.9837 23.6858 35.8377C22.9516 35.6917 22.2772 35.3312 21.7479 34.8018C21.2185 34.2725 20.858 33.5981 20.712 32.8638C20.5659 32.1296 20.6409 31.3686 20.9274 30.677C21.2139 29.9854 21.699 29.3942 22.3214 28.9783Z" fill="#2463EB" stroke="#0B59FF" stroke-width="0.3"/>
<path d="M26.0277 33.0823V32.7703L25.9883 32.8018C25.9306 32.5114 25.7825 32.3009 25.5675 32.14C25.3017 31.9412 24.937 31.8224 24.5591 31.6997C24.2972 31.6145 24.0913 31.535 23.9515 31.4392C23.8183 31.348 23.7627 31.2552 23.7627 31.1373C23.7627 31.0039 23.8176 30.906 23.9128 30.8368C24.0124 30.7643 24.1646 30.7179 24.3592 30.7173C24.7081 30.7342 25.0445 30.8528 25.3268 31.0586L25.4418 31.1424L25.5316 31.032L25.8466 30.6445L25.946 30.5221L25.8188 30.4288C25.5188 30.209 25.1771 30.0537 24.8152 29.9721V29.2773V29.1273H24.6652H24.2477H24.0977V29.2773V29.9295C23.7526 29.971 23.4687 30.0993 23.2635 30.2985C23.0299 30.5251 22.9102 30.8322 22.9102 31.1723C22.9102 31.5977 23.0929 31.8805 23.369 32.0796C23.6327 32.2698 23.9833 32.3844 24.3191 32.4926L24.3191 32.4926L24.3205 32.493C24.6128 32.5841 24.8238 32.6606 24.9632 32.7603C25.03 32.808 25.0756 32.858 25.1052 32.9132C25.1346 32.9681 25.1527 33.0364 25.1527 33.1273C25.1527 33.2745 25.0908 33.3862 24.9843 33.4655C24.8742 33.5475 24.7087 33.5993 24.5032 33.5998C24.0889 33.5824 23.697 33.4072 23.4076 33.1102L23.2919 32.9914L23.1853 33.1184L22.8578 33.5084L22.7687 33.6144L22.8673 33.7116C23.2049 34.0445 23.6352 34.2656 24.1002 34.347V34.9798V35.1298H24.2502H24.6702H24.8202V34.9798V34.3636C25.1651 34.313 25.4532 34.1819 25.663 33.9797C25.9017 33.7497 26.0277 33.4382 26.0277 33.0823Z" fill="#2463EB" stroke="#0B59FF" stroke-width="0.3"/>
<path d="M15.3297 42.9696L15.3303 42.9696C16.3593 42.9655 17.3449 42.5549 18.0725 41.8274C18.8001 41.0998 19.2106 40.1142 19.2147 39.0852V39.0846C19.2147 38.3162 18.9869 37.5651 18.56 36.9262C18.1331 36.2873 17.5263 35.7894 16.8165 35.4953C16.1066 35.2013 15.3254 35.1244 14.5718 35.2743C13.8182 35.4242 13.1259 35.7942 12.5826 36.3375C12.0393 36.8808 11.6693 37.5731 11.5194 38.3267C11.3695 39.0803 11.4464 39.8614 11.7405 40.5713C12.0345 41.2812 12.5325 41.888 13.1713 42.3149C13.8102 42.7418 14.5613 42.9696 15.3297 42.9696ZM13.8936 36.9328C14.3186 36.6488 14.8182 36.4972 15.3293 36.4971C16.0138 36.5009 16.6692 36.7746 17.1532 37.2586C17.6373 37.7426 17.9109 38.398 17.9147 39.0825C17.9147 39.5936 17.7631 40.0933 17.4791 40.5183C17.195 40.9434 16.7913 41.2747 16.319 41.4703C15.8466 41.666 15.3269 41.7172 14.8254 41.6174C14.324 41.5177 13.8634 41.2715 13.5019 40.91C13.1403 40.5485 12.8941 40.0879 12.7944 39.5864C12.6947 39.085 12.7458 38.5652 12.9415 38.0929C13.1372 37.6205 13.4685 37.2168 13.8936 36.9328Z" fill="#2463EB" stroke="#0B59FF" stroke-width="0.3"/>
<path d="M16.5395 39.78V39.4179L16.4869 39.4705C16.4321 39.2973 16.3295 39.1639 16.1898 39.0586C15.9894 38.9076 15.7168 38.819 15.443 38.7322C15.2511 38.6695 15.1061 38.6132 15.0095 38.5471C14.9197 38.4857 14.8895 38.4293 14.8895 38.36C14.8895 38.2732 14.9231 38.2136 14.98 38.1713C15.0414 38.1256 15.1404 38.0931 15.2761 38.0925C15.5222 38.1047 15.7595 38.1885 15.9587 38.3337L16.0736 38.4175L16.1634 38.3072L16.3934 38.0247L16.493 37.9024L16.3657 37.809C16.151 37.6515 15.9075 37.5384 15.6495 37.4758V37V36.85H15.4995H15.202H15.052V37V37.426C14.8093 37.4607 14.6065 37.5554 14.4568 37.7009C14.278 37.8747 14.187 38.1099 14.187 38.3675C14.187 38.6925 14.3269 38.911 14.5379 39.0635C14.7365 39.2069 14.9991 39.2921 15.2438 39.3704L15.2444 39.3706C15.4583 39.438 15.6055 39.4919 15.7011 39.5602C15.7458 39.5921 15.7742 39.624 15.7922 39.6576C15.81 39.6908 15.822 39.7339 15.822 39.795C15.822 39.8898 15.7832 39.9596 15.7155 40.0101C15.644 40.0634 15.5327 40.0996 15.3893 40.1C15.1024 40.0907 14.8295 39.974 14.6246 39.7729L14.5114 39.6618L14.4068 39.7811L14.1568 40.0661L14.0635 40.1724L14.1642 40.2718C14.4083 40.5127 14.7174 40.6753 15.052 40.7408V41.17V41.32H15.202H15.507H15.657V41.17V40.7499C15.9006 40.7086 16.1071 40.612 16.2604 40.4643C16.4435 40.2881 16.5395 40.0498 16.5395 39.78Z" fill="#2463EB" stroke="#0B59FF" stroke-width="0.3"/>
</svg>
