<svg width="60" height="60" viewBox="0 0 60 60" fill="none" xmlns="http://www.w3.org/2000/svg">
<path fill-rule="evenodd" clip-rule="evenodd" d="M7.5 18.9052C7.5 15.3688 10.3665 12.5005 13.908 12.5005C15.861 12.5005 17.499 12.5005 17.499 12.5005V7.5H30V12.5005H35.004C44.6655 12.5005 52.5 20.3332 52.5 29.9942C52.5 35.7227 52.5 41.7312 52.5 46.0997C52.5 47.796 51.825 49.4283 50.6235 50.6283C49.422 51.8285 47.793 52.5045 46.092 52.5045C37.5375 52.5045 22.4625 52.5045 13.908 52.5045C12.207 52.5045 10.578 51.8285 9.37653 50.6283C8.17503 49.4283 7.5 47.796 7.5 46.0997C7.5 38.635 7.5 26.37 7.5 18.9052Z" stroke="black" stroke-width="3.7337" stroke-miterlimit="1.5" stroke-linecap="round" stroke-linejoin="round"/>
<path fill-rule="evenodd" clip-rule="evenodd" d="M29.9977 22.5C29.9977 22.5 37.4978 29.9835 37.4985 34.7162C37.4993 38.8555 34.138 42.2162 29.9992 42.2162C25.8605 42.2162 22.53 38.8555 22.5 34.7162C22.5245 29.981 29.9977 22.5 29.9977 22.5Z" stroke="black" stroke-width="3.74983" stroke-miterlimit="1.5" stroke-linecap="round" stroke-linejoin="round"/>
</svg>
