<svg width="60" height="60" viewBox="0 0 60 60" fill="none" xmlns="http://www.w3.org/2000/svg">
<path d="M57.5 10C57.5 5.85788 54.1423 2.5 50 2.5H40C38.6193 2.5 37.5 3.6193 37.5 5C37.5 6.3807 38.6193 7.5 40 7.5H50C51.3807 7.5 52.5 8.6193 52.5 10V20C52.5 21.3807 53.6192 22.5 55 22.5C56.3808 22.5 57.5 21.3807 57.5 20V10Z" fill="#555555"/>
<path d="M57.5 40C57.5 38.6193 56.3808 37.5 55 37.5C53.6192 37.5 52.5 38.6193 52.5 40V50C52.5 51.3807 51.3807 52.5 50 52.5H40C38.6193 52.5 37.5 53.6192 37.5 55C37.5 56.3808 38.6193 57.5 40 57.5H50C54.1423 57.5 57.5 54.1423 57.5 50V40Z" fill="#555555"/>
<path d="M20 52.5H10C8.6193 52.5 7.5 51.3807 7.5 50V40C7.5 38.6193 6.3807 37.5 5 37.5C3.6193 37.5 2.5 38.6193 2.5 40V50C2.5 54.1423 5.85788 57.5 10 57.5H20C21.3807 57.5 22.5 56.3808 22.5 55C22.5 53.6192 21.3807 52.5 20 52.5Z" fill="#555555"/>
<path d="M2.5 20C2.5 21.3807 3.6193 22.5 5 22.5C6.3807 22.5 7.5 21.3807 7.5 20V10C7.5 8.6193 8.6193 7.5 10 7.5H20C21.3807 7.5 22.5 6.3807 22.5 5C22.5 3.6193 21.3807 2.5 20 2.5H10C5.85788 2.5 2.5 5.85788 2.5 10V20Z" fill="#555555"/>
<path d="M27.5 22.5C27.5 21.1193 28.6193 20 30 20C31.3807 20 32.5 21.1193 32.5 22.5V27.5H37.5C38.8808 27.5 40 28.6193 40 30C40 31.3807 38.8808 32.5 37.5 32.5H32.5V37.5C32.5 38.8808 31.3807 40 30 40C28.6193 40 27.5 38.8808 27.5 37.5V32.5H22.5C21.1193 32.5 20 31.3807 20 30C20 28.6193 21.1193 27.5 22.5 27.5H27.5V22.5Z" fill="#555555"/>
</svg>
