<svg width="60" height="60" viewBox="0 0 60 60" fill="none" xmlns="http://www.w3.org/2000/svg">
<path d="M16.25 55C10.0368 55 5 49.9632 5 43.75C5 37.5368 10.0368 32.5 16.25 32.5C22.4632 32.5 27.5 37.5368 27.5 43.75C27.5 49.9632 22.4632 55 16.25 55ZM43.75 55C37.5368 55 32.5 49.9632 32.5 43.75C32.5 37.5368 37.5368 32.5 43.75 32.5C49.9632 32.5 55 37.5368 55 43.75C55 49.9632 49.9632 55 43.75 55ZM16.25 27.5C10.0368 27.5 5 22.4632 5 16.25C5 10.0368 10.0368 5 16.25 5C22.4632 5 27.5 10.0368 27.5 16.25C27.5 22.4632 22.4632 27.5 16.25 27.5ZM43.75 27.5C37.5368 27.5 32.5 22.4632 32.5 16.25C32.5 10.0368 37.5368 5 43.75 5C49.9632 5 55 10.0368 55 16.25C55 22.4632 49.9632 27.5 43.75 27.5ZM43.75 22.5C47.2018 22.5 50 19.7018 50 16.25C50 12.7982 47.2018 10 43.75 10C40.2982 10 37.5 12.7982 37.5 16.25C37.5 19.7018 40.2982 22.5 43.75 22.5ZM16.25 22.5C19.7018 22.5 22.5 19.7018 22.5 16.25C22.5 12.7982 19.7018 10 16.25 10C12.7982 10 10 12.7982 10 16.25C10 19.7018 12.7982 22.5 16.25 22.5ZM43.75 50C47.2018 50 50 47.2018 50 43.75C50 40.2982 47.2018 37.5 43.75 37.5C40.2982 37.5 37.5 40.2982 37.5 43.75C37.5 47.2018 40.2982 50 43.75 50ZM16.25 50C19.7018 50 22.5 47.2018 22.5 43.75C22.5 40.2982 19.7018 37.5 16.25 37.5C12.7982 37.5 10 40.2982 10 43.75C10 47.2018 12.7982 50 16.25 50Z" fill="#555555"/>
</svg>
