<svg width="60" height="60" viewBox="0 0 60 60" fill="none" xmlns="http://www.w3.org/2000/svg">
<g clip-path="url(#clip0_1097_1387)">
<path d="M39.39 20.2788L23.3521 4.24164C22.9009 3.79047 22.2891 3.53711 21.6512 3.53711H2.40574C1.07707 3.53711 0 4.61418 0 5.94273V54.0564C0 55.385 1.07707 56.4622 2.40574 56.4622H37.6892C39.0177 56.4622 40.0949 55.3851 40.0949 54.0564V21.9799C40.0948 21.3418 39.8413 20.73 39.39 20.2788ZM24.0569 11.7504L31.8811 19.5743H24.0569V11.7504ZM35.2834 51.6508H4.81136V8.34847H19.2454V21.98C19.2454 23.3086 20.3225 24.3858 21.6512 24.3858H35.2833V51.6508H35.2834Z" fill="#555555"/>
<path d="M28.0667 40.4238H12.0288C10.7002 40.4238 9.62305 41.5009 9.62305 42.8296C9.62305 44.1582 10.7001 45.2353 12.0288 45.2353H28.0667C29.3952 45.2353 30.4724 44.1582 30.4724 42.8296C30.4723 41.5008 29.3952 40.4238 28.0667 40.4238Z" fill="#555555"/>
<path d="M28.0667 30.8027H12.0288C10.7002 30.8027 9.62305 31.8798 9.62305 33.2085C9.62305 34.537 10.7001 35.6142 12.0288 35.6142H28.0667C29.3952 35.6142 30.4724 34.5371 30.4724 33.2085C30.4723 31.8797 29.3952 30.8027 28.0667 30.8027Z" fill="#555555"/>
<path d="M59.2953 4.24176C58.8442 3.79059 58.2323 3.53711 57.5942 3.53711H47.3119C46.6737 3.53711 46.0618 3.7907 45.6108 4.24176C45.1597 4.69281 44.9062 5.30488 44.9062 5.94285L44.9066 48.9156C44.9066 49.5539 45.16 50.1657 45.6114 50.6167L50.7524 55.7577C51.2222 56.2276 51.8379 56.4625 52.4533 56.4625C53.0689 56.4625 53.6848 56.2277 54.1543 55.7577L59.2953 50.6167C59.7465 50.1656 60 49.5537 60 48.9156L60.0003 5.94285C59.9999 5.30488 59.7465 4.69281 59.2953 4.24176ZM55.1881 47.9192L52.4529 50.6545L49.7176 47.9192L49.7175 8.34858H55.1885L55.1881 47.9192Z" fill="#555555"/>
</g>
<defs>
<clipPath id="clip0_1097_1387">
<rect width="60" height="60" fill="white"/>
</clipPath>
</defs>
</svg>
