<svg width="60" height="60" viewBox="0 0 60 60" fill="none" xmlns="http://www.w3.org/2000/svg">
<path fill-rule="evenodd" clip-rule="evenodd" d="M22.6813 30C24.1979 30.84 25.6017 31.8702 26.8658 33.1342C28.1298 34.3983 29.16 35.8021 30 37.3186C30.84 35.8021 31.8702 34.3983 33.1342 33.1342C34.3983 31.8702 35.8021 30.84 37.3186 30C35.8021 29.16 34.3983 28.1298 33.1342 26.8658C31.8702 25.6017 30.84 24.1979 30 22.6813C29.16 24.1979 28.1298 25.6017 26.8658 26.8658C25.6017 28.1298 24.1979 29.16 22.6813 30ZM30 0C32.0711 0 33.7416 1.68516 33.7914 3.75563C34.2237 21.7357 38.2642 25.7763 56.2444 26.2086C58.3148 26.2584 60 27.9289 60 30C60 32.0711 58.3148 33.7416 56.2444 33.7914C38.2642 34.2237 34.2237 38.2642 33.7914 56.2444C33.7416 58.3148 32.0711 60 30 60C27.9289 60 26.2584 58.3148 26.2086 56.2444C25.7763 38.2642 21.7357 34.2237 3.75563 33.7914C1.68516 33.7416 0 32.0711 0 30C0 27.9289 1.68516 26.2584 3.75563 26.2086C21.7357 25.7763 25.7763 21.7357 26.2086 3.75563C26.2584 1.68516 27.9289 0 30 0Z" fill="#555555"/>
</svg>
