<svg width="65" height="65" viewBox="0 0 65 65" fill="none" xmlns="http://www.w3.org/2000/svg">
<rect x="0.629883" y="0.794922" width="64" height="64" rx="32" fill="#2463EB"/>
<path d="M28.7404 26.1372C28.7404 25.1028 29.1413 24.1106 29.8554 23.3774C30.5695 22.6442 31.5385 22.2295 32.5509 22.2241C33.5633 22.2188 34.5365 22.6232 35.2581 23.3491C35.9794 24.0747 36.3901 25.0626 36.4006 26.097C36.411 27.1311 36.0202 28.1276 35.3136 28.8682C34.6069 29.6091 33.6421 30.0338 32.6297 30.0498C31.6066 30.0564 30.6226 29.6483 29.8936 28.9149C29.1644 28.1814 28.7497 27.1824 28.7405 26.1372L28.7404 26.1372ZM35.712 26.1372C35.7029 25.3107 35.3732 24.5218 34.7954 23.9434C34.2175 23.3651 33.4386 23.0444 32.6296 23.0523C31.8202 23.0387 31.0394 23.3577 30.4625 23.9377C29.8853 24.5177 29.5604 25.3101 29.5604 26.1372C29.5604 26.9641 29.8853 27.7564 30.4625 28.3364C31.0394 28.9164 31.8203 29.2354 32.6296 29.2219C33.438 29.2289 34.216 28.9078 34.7932 28.3297C35.3704 27.7513 35.6997 26.9628 35.7087 26.1372H35.712ZM24.6648 40.6921L25.9722 35.4441C26.0429 35.1641 26.2032 34.9162 26.4275 34.7398C26.6517 34.5631 26.9271 34.4683 27.2104 34.4697H28.9119C26.7958 31.7528 24.6485 27.8037 24.8176 26.137C24.8662 23.3191 26.3658 20.7361 28.7629 19.3412C31.1601 17.9462 34.0994 17.9462 36.4967 19.3412C38.8939 20.7359 40.3934 23.3189 40.4421 26.137C40.616 27.7992 38.4592 31.7592 36.3461 34.4697H38.0477V34.4695C38.3307 34.468 38.6063 34.5629 38.8305 34.7396C39.0549 34.916 39.2151 35.1639 39.2859 35.4439L40.5948 40.6919C40.6857 41.0792 40.5977 41.488 40.3558 41.8008C40.114 42.1134 39.7453 42.2955 39.3551 42.2949H25.9045C25.5145 42.2955 25.1458 42.1134 24.904 41.8008C24.6621 41.488 24.574 41.0792 24.6649 40.6919L24.6648 40.6921ZM39.6321 26.1372C39.2509 16.8275 26.0112 16.8244 25.6278 26.1372C25.6278 27.6123 26.718 29.9487 28.7811 32.8941C29.4962 33.9202 30.2838 34.9412 31.0705 35.9155C31.5845 36.5504 32.0128 37.0546 32.2753 37.3588C32.3672 37.4588 32.4954 37.5155 32.6297 37.5155C32.764 37.5155 32.8925 37.4588 32.9843 37.3588C35.2985 34.7727 39.7886 28.7216 39.6317 26.1369L39.6321 26.1372ZM25.5305 41.2836C25.6204 41.4013 25.7587 41.4693 25.9044 41.4674H39.355C39.5003 41.4686 39.6381 41.4007 39.7273 41.2836C39.8126 41.1749 39.8425 41.0316 39.8083 40.8966L38.5014 35.6484C38.4467 35.4393 38.2601 35.2949 38.0484 35.2978H35.9518C35.5373 35.3173 35.3752 35.816 35.1115 36.0756C34.6187 36.6965 33.9467 37.5025 33.5922 37.9097L33.5924 37.9095C33.3474 38.1882 32.9979 38.3474 32.6312 38.3474C32.2648 38.3474 31.9154 38.1882 31.6703 37.9095C31.1894 37.3579 30.3102 36.2911 29.7425 35.5573H29.7427C29.6513 35.4016 29.4886 35.3038 29.3109 35.2979H27.2119C27 35.295 26.8136 35.4394 26.7589 35.6484L25.452 40.8967H25.4518C25.417 41.0312 25.4461 41.1746 25.5304 41.2836L25.5305 41.2836Z" fill="white"/>
</svg>
