<svg width="64" height="64" viewBox="0 0 64 64" fill="none" xmlns="http://www.w3.org/2000/svg">
<rect width="64" height="64" rx="32" fill="#2463EB"/>
<path d="M26.8338 21.668H40.856C41.6701 21.668 42.332 22.3299 42.332 23.144V40.8562C42.332 41.6702 41.6701 42.3322 40.856 42.3322H27.941C27.7371 42.3322 27.5721 42.1672 27.5721 41.9632V40.1182H26.8342C26.6302 40.1182 26.4652 39.9533 26.4652 39.7493L26.465 22.0371C26.465 21.8331 26.63 21.6681 26.834 21.6681L26.8338 21.668ZM40.856 24.62H28.3099V28.31H40.856C41.2631 28.31 41.5939 27.9789 41.5939 27.5721V24.4146C41.376 24.5419 41.1261 24.62 40.856 24.62ZM41.5941 28.8424C41.376 28.9697 41.1261 29.048 40.856 29.048H28.3099V31.6311L40.856 31.6309C41.2631 31.6309 41.5939 31.2999 41.5939 30.893L41.5941 28.8424ZM28.3102 41.5943H40.8563C41.2634 41.5943 41.5942 41.2632 41.5942 40.8564L41.5944 32.1634C41.3763 32.2909 41.1264 32.3691 40.8563 32.3691H28.3102L28.3102 41.5943ZM27.2032 39.3802H27.5721L27.5723 24.2513C27.5723 24.0473 27.7373 23.8823 27.9413 23.8823L40.8563 23.8822C41.2633 23.8822 41.5942 23.5511 41.5942 23.1442C41.5942 22.7372 41.2631 22.4063 40.8563 22.4063H27.203L27.2032 39.3802Z" fill="white"/>
<path d="M22.0371 23.144V22.0369C22.0371 21.8329 22.202 21.668 22.406 21.668H23.882C24.086 21.668 24.251 21.8329 24.251 22.0369V23.144C24.455 23.144 24.6199 23.309 24.6199 23.5129H25.3578C25.5618 23.5129 25.7268 23.6779 25.7268 23.8819V28.6791C25.7268 28.8831 25.5618 29.048 25.3578 29.048C25.1539 29.048 24.9889 28.8831 24.9889 28.6791L24.9891 24.2512H24.6201V32.369C24.6201 32.573 24.4551 32.738 24.2512 32.738V39.7491C24.2512 39.7886 24.2446 39.828 24.2319 39.8657L23.494 42.0796C23.4437 42.2305 23.303 42.3319 23.1441 42.3319C22.985 42.3319 22.8442 42.2305 22.7944 42.0796L22.0565 39.8657C22.0437 39.828 22.0371 39.7885 22.0371 39.7491V32.738C21.8331 32.738 21.6681 32.573 21.6681 32.369V23.5129C21.6681 23.309 21.8331 23.144 22.0371 23.144ZM23.882 23.8819H22.406V31.9997H23.882V23.8819ZM23.5131 22.4059H22.7752V23.1438H23.5131V22.4059ZM22.775 39.6892L23.1439 40.7962L23.5129 39.6892L23.5131 32.7381H22.7752L22.775 39.6892Z" fill="white"/>
</svg>
