<svg width="65" height="64" viewBox="0 0 65 64" fill="none" xmlns="http://www.w3.org/2000/svg">
<rect x="0.469727" width="64" height="64" rx="32" fill="#2463EB"/>
<path d="M33.7568 21.957C32.7486 21.957 31.9312 22.7743 31.9312 23.7827C31.9312 24.7911 32.7486 25.6083 33.7568 25.6083C34.7652 25.6083 35.5824 24.7911 35.5824 23.7827C35.5824 22.7743 34.7652 21.957 33.7568 21.957ZM33.7568 25.1215C33.2756 25.1215 32.8541 24.8654 32.6181 24.4829H34.8957C34.6597 24.8653 34.238 25.1215 33.7568 25.1215Z" fill="white"/>
<mask id="mask0_1_2879" style="mask-type:luminance" maskUnits="userSpaceOnUse" x="20" y="12" width="19" height="30">
<path d="M20.4697 12.6123H38.8604V41.3868H20.4697V12.6123Z" fill="white"/>
</mask>
<g mask="url(#mask0_1_2879)">
<path d="M24.7055 28.1597C25.1317 27.7336 25.307 27.106 25.1863 26.4385C25.1138 26.0364 24.938 25.6373 24.6799 25.2779L28.556 21.4018C29.4544 24.3249 31.0389 26.3533 31.5626 26.9704V31.6207L30.7927 40.2957C30.7436 40.8477 31.1516 41.3347 31.7031 41.3835C32.2548 41.4326 32.7421 41.025 32.7912 40.4731L33.4654 32.8753H34.0484L34.7226 40.4731C34.7717 41.025 35.2587 41.4327 35.8107 41.3835C36.3624 41.3347 36.7702 40.8477 36.7211 40.2957L35.9514 31.6218V28.2673C36.5397 29.1468 37.2503 30.6679 37.5131 33.0959C37.549 33.4287 37.8306 33.6753 38.1576 33.6753C38.1811 33.6753 38.2045 33.6742 38.2284 33.6715C38.5849 33.6329 38.8423 33.3128 38.8037 32.9563C38.2645 27.9756 35.9144 26.2637 35.8144 26.1929C35.6872 26.1032 35.5391 26.0657 35.3952 26.0757C35.3718 26.0731 35.3481 26.0715 35.324 26.0715H32.5047C31.9653 25.4187 30.3531 23.2892 29.6087 20.3481L33.9696 15.9872L35.5114 17.5291C35.5114 17.5291 35.6939 17.7653 35.8896 17.5697C35.8896 17.5697 36.0449 17.4684 35.9639 17.3738L35.8896 17.2995C35.8896 17.2995 35.9909 17.2299 36.0397 17.1136C36.0895 16.9958 36.0855 16.8292 36.0922 16.8265C36.1013 16.8229 36.1243 16.8486 36.1243 16.8486L36.214 16.7589L36.0788 16.6237L36.3284 16.3741C36.3284 16.3741 36.5582 16.5902 36.7474 16.4011L36.9163 16.2322C36.9163 16.2322 37.1122 16.3875 37.2741 16.2255L37.47 16.0296C37.47 16.0296 37.5579 15.9147 37.47 15.8268L35.9663 14.3231C35.9663 14.3231 35.861 14.2178 35.9255 14.0308L36.5422 13.4142C36.5982 13.3582 36.5982 13.2674 36.5422 13.2114L35.9851 12.6543C35.9291 12.5983 35.8385 12.5983 35.7825 12.6543L28.9585 19.4794C28.8898 19.472 28.8189 19.4749 28.7477 19.4908C28.4218 19.5635 28.2083 19.8696 28.2437 20.1942L23.9205 24.5174C23.5611 24.2591 23.1618 24.0835 22.76 24.011C22.092 23.8903 21.4646 24.0656 21.0385 24.4918C20.6124 24.9179 20.4373 25.5452 20.5577 26.2132C20.6592 26.7763 20.9631 27.3343 21.4133 27.7845C21.8633 28.2345 22.4214 28.5384 22.9846 28.6401C23.6523 28.7606 24.2797 28.5852 24.7058 28.1593L24.7055 28.1597ZM33.7569 31.9691L32.9861 30.9955L33.4301 27.7238C33.5354 27.7633 33.6461 27.7838 33.7569 27.7838H33.7572H33.7576C33.8683 27.7838 33.9787 27.7633 34.0838 27.7238L34.528 30.9955L33.7569 31.9691ZM33.4484 26.7356H34.065L34.2192 27.3442L34.1958 27.3813C34.0686 27.4873 33.9131 27.5404 33.7567 27.5406C33.6003 27.5404 33.4448 27.4875 33.3179 27.3817L33.2942 27.3445L33.4484 26.7356ZM21.6458 25.1001C22.1159 24.63 23.0456 24.798 23.7227 25.4749C24.3996 26.1518 24.5675 27.0817 24.0975 27.5517C23.6274 28.0218 22.6977 27.8538 22.0206 27.1769C21.3437 26.5 21.176 25.5701 21.6458 25.1001Z" fill="white"/>
</g>
</svg>
