<svg width="65" height="65" viewBox="0 0 65 65" fill="none" xmlns="http://www.w3.org/2000/svg">
<rect x="0.985107" y="0.794922" width="64" height="64" rx="32" fill="#2463EB"/>
<mask id="path-2-outside-1_1_2872" maskUnits="userSpaceOnUse" x="16.9854" y="17.7949" width="35" height="26" fill="black">
<rect fill="white" x="16.9854" y="17.7949" width="35" height="26"/>
<path d="M50.4393 31.4644L44.1866 30.5736C44.047 30.5547 43.9112 30.4955 43.7884 30.3984L38.811 26.2425C38.3424 25.8555 37.8052 25.5686 37.2148 25.3897L36.9719 25.3162L37.033 25.0699C37.1344 24.6649 37.1853 24.2583 37.1853 23.8616C37.1853 21.0679 34.9123 18.7949 32.1186 18.7949C29.3249 18.7949 27.0519 21.0679 27.0519 23.8616C27.0519 24.1975 27.0894 24.5464 27.1636 24.8975L27.2237 25.1828L26.9338 25.2172C26.0402 25.323 25.2637 25.9343 24.956 26.7732L23.3836 31.1024L22.6452 31.2773L21.912 29.9949H22.5186C22.6656 29.9949 22.7853 29.8755 22.7853 29.7282V28.1282C22.7853 28.0057 22.7022 27.8994 22.5834 27.8693L18.3169 26.803C18.2961 26.7977 18.2744 26.7949 18.2527 26.7949C18.1931 26.7949 18.1345 26.8151 18.0877 26.8514C18.0229 26.9026 17.9854 26.9792 17.9854 27.0617V29.7282C17.9854 29.8755 18.1048 29.9949 18.2521 29.9949H19.1642L20.1799 31.7724L18.6394 32.053C18.2605 32.1256 17.9854 32.4556 17.9854 32.8377V37.7283C17.9854 37.781 18.0009 37.8322 18.03 37.8762L19.0966 39.4762C19.1462 39.5506 19.2294 39.595 19.3187 39.595H23.3254L23.3585 39.8236C23.4569 40.5062 23.7496 41.1329 24.2074 41.6384C24.8583 42.3735 25.7977 42.7949 26.7856 42.7949C28.4953 42.7949 29.9685 41.5174 30.2123 39.8235L30.2451 39.5949H39.3264L39.3596 39.8235C39.6027 41.5178 41.0758 42.7949 42.7859 42.7949C43.7731 42.7949 44.7103 42.3765 45.3601 41.6431C45.4293 41.568 45.4925 41.4877 45.5574 41.4052C45.6098 41.3376 45.6572 41.2696 45.7006 41.198L45.7859 41.0625C45.8216 41.0008 45.8566 40.94 45.8855 40.8783C45.9329 40.7899 45.9742 40.6956 46.0067 40.6081C46.0486 40.5126 46.079 40.4174 46.1007 40.3349C46.114 40.2952 46.1314 40.244 46.1497 40.1559C46.1674 40.0973 46.1789 40.0393 46.1894 39.9801C46.1953 39.9488 46.2455 39.5949 46.2455 39.5949H50.2525C50.9876 39.5949 51.5858 38.9966 51.5858 38.2616V32.7843C51.5858 32.12 51.1029 31.5649 50.4398 31.4644L50.4393 31.4644ZM32.1188 19.328C34.6185 19.328 36.6521 21.3616 36.6521 23.8613C36.6521 24.396 36.5569 24.9239 36.3693 25.4287C36.0886 26.2007 35.5995 26.879 34.9582 27.3882C34.4279 27.8218 33.7958 28.1313 33.1284 28.2832C32.7934 28.3567 32.4535 28.394 32.1174 28.394C31.9493 28.394 31.7818 28.385 31.614 28.3667C31.4465 28.3481 31.2791 28.3205 31.1091 28.2829C30.4417 28.1303 29.8074 27.8196 29.2774 27.3863C28.6221 26.8628 28.1272 26.165 27.8471 25.3707C27.6737 24.8909 27.5856 24.3832 27.5856 23.8612C27.5856 21.3616 29.6192 19.3279 32.1189 19.3279L32.1188 19.328ZM35.5003 27.8614C35.9925 27.8614 36.4741 28.0605 36.8212 28.4073L39.4754 31.0614H33.4522V28.7509L33.7763 28.6495C33.8092 28.638 33.9586 28.5757 33.9586 28.5757C34.0684 28.5326 34.1788 28.4898 34.2855 28.4386C34.3305 28.4169 34.3739 28.393 34.4177 28.3691L34.507 28.3207C34.5954 28.2736 34.6831 28.2264 34.7684 28.1737C34.8221 28.1405 34.8732 28.1046 34.925 28.0686L35.0485 27.9852C35.0832 27.9628 35.1176 27.9405 35.1508 27.9154L35.2218 27.8614L35.5003 27.8614ZM32.919 28.8734V31.0614H31.319V28.8732L31.6121 28.9026C31.782 28.92 31.9504 28.9287 32.1188 28.9287C32.2872 28.9287 32.456 28.92 32.6256 28.9029L32.919 28.8734ZM30.7855 28.7509V31.0614H26.6058L27.3569 28.4401C27.4521 28.0996 27.7675 27.8614 28.1242 27.8614H29.0165L29.0878 27.9157C29.1207 27.9405 29.1554 27.9628 29.1901 27.9852L29.3198 28.0726C29.3682 28.1064 29.4165 28.1399 29.4665 28.1709C29.5598 28.2289 29.6572 28.2807 29.7546 28.3325L29.8216 28.3691C29.8647 28.393 29.9078 28.4169 29.9524 28.4383C30.0622 28.491 30.1761 28.535 30.2899 28.5797L30.369 28.6123C30.4003 28.6256 30.4316 28.6389 30.4645 28.6504L30.7855 28.7509ZM18.519 29.4614V27.4027L22.2524 28.3359L22.2521 29.4614H18.519ZM19.7784 29.9948H21.2975L22.1129 31.4202L20.7358 31.6711L19.7784 29.9948ZM26.7857 42.2614C25.9511 42.2614 25.1556 41.9038 24.6048 41.2823C24.1194 40.7467 23.8521 40.0523 23.8521 39.3278C23.8521 37.7105 25.168 36.3946 26.7853 36.3946C28.4027 36.3946 29.7186 37.7105 29.7186 39.3278C29.7189 40.9455 28.403 42.2614 26.7857 42.2614ZM45.6619 39.9001C45.6557 39.9385 45.648 39.977 45.6343 40.0148L45.6117 40.1116L45.5897 40.182C45.5723 40.2477 45.5509 40.3181 45.5124 40.4078C45.4851 40.4803 45.4541 40.5532 45.4088 40.6391C45.385 40.69 45.3583 40.7359 45.3316 40.7824L45.3015 40.8345L45.2581 40.8987C45.2215 40.9626 45.1803 41.0215 45.1331 41.0826C45.0804 41.1499 45.0277 41.2175 44.9653 41.2848C44.4149 41.9054 43.6205 42.2615 42.786 42.2615C41.1687 42.2615 39.8528 40.9456 39.8528 39.3282C39.8528 37.7108 41.1687 36.3949 42.786 36.3949C44.4034 36.3949 45.7193 37.7108 45.7193 39.3282C45.7193 39.5075 45.7013 39.6898 45.6619 39.9001ZM51.0527 36.3946H48.8715L48.4447 34.2612H51.0527V36.3946ZM51.0527 33.728H48.1194C48.0391 33.728 47.9641 33.7637 47.9132 33.826C47.862 33.8877 47.8422 33.9684 47.858 34.0472L48.3914 36.714C48.4159 36.8378 48.5257 36.928 48.6526 36.928H51.0527V38.2613C51.0527 38.7023 50.6939 39.0615 50.2525 39.0615H46.2509L46.2177 38.8332C46.2177 38.8332 46.1795 38.626 46.169 38.5792C46.155 38.5169 46.1386 38.4555 46.1119 38.3606L46.0834 38.2629C46.0629 38.1996 46.0387 38.1379 45.9981 38.0324L45.9693 37.9583C45.9395 37.8892 45.9057 37.8228 45.8716 37.7561L45.8285 37.6686C45.7773 37.5753 45.7221 37.4844 45.6632 37.397L45.6157 37.3328C45.5695 37.267 45.5223 37.2022 45.4727 37.1411L45.3859 37.0425C45.344 36.995 45.3025 36.9476 45.2587 36.9029L45.1623 36.8114C45.117 36.7683 45.0717 36.7258 45.024 36.6855L44.916 36.5993C44.868 36.5618 44.8199 36.5249 44.7712 36.4904L44.654 36.4126C44.6034 36.38 44.5519 36.3484 44.4983 36.318C44.4576 36.2944 44.4164 36.2721 44.3751 36.2507C44.3209 36.2225 44.2654 36.1964 44.2111 36.1716L44.0814 36.1155C44.0234 36.0919 43.9639 36.0708 43.8706 36.0389L43.7747 36.0072C43.7118 35.9886 43.6473 35.9731 43.5334 35.9461L43.4553 35.9281C43.383 35.9139 43.3089 35.9043 43.2366 35.8947L43.1256 35.8791C43.0136 35.8677 42.9008 35.8612 42.786 35.8612C42.6713 35.8612 42.5581 35.8674 42.4464 35.8782L42.3366 35.8937C42.2628 35.9036 42.1887 35.9133 42.1164 35.9275L41.989 35.9576C41.9248 35.9728 41.8599 35.988 41.7964 36.0072L41.6673 36.0503C41.6078 36.0708 41.5482 36.0919 41.4906 36.1152L41.3622 36.1713C41.3063 36.1964 41.2508 36.2228 41.1972 36.2507C41.1553 36.2727 41.1141 36.295 41.0725 36.3189C41.0198 36.349 40.9683 36.3803 40.9187 36.4123L40.8021 36.4898C40.7521 36.5249 40.7037 36.5621 40.6467 36.6067L40.548 36.6855C40.5003 36.7258 40.455 36.7683 40.3769 36.8421L40.3136 36.9026C40.2695 36.9473 40.2283 36.995 40.1812 37.0484L40.1005 37.1399C40.05 37.2022 40.0028 37.267 39.9566 37.3325L39.9092 37.3967C39.8499 37.4841 39.7947 37.575 39.7439 37.6683L39.7008 37.7558C39.6666 37.8225 39.6328 37.8888 39.6031 37.9583L39.5578 38.0759C39.5336 38.1376 39.5097 38.1993 39.4892 38.262L39.4508 38.3947C39.4337 38.4555 39.417 38.5172 39.4027 38.5798C39.3925 38.6261 39.3543 38.8332 39.3543 38.8332L39.3211 39.0615H30.251L30.2178 38.8332C30.2178 38.8332 30.1797 38.6261 30.1692 38.5792C30.1552 38.5169 30.1388 38.4555 30.1121 38.3606L30.0836 38.2629C30.0631 38.1996 30.0389 38.1379 29.9983 38.0325L29.9694 37.9583C29.9396 37.8892 29.9058 37.8228 29.8717 37.7561L29.8286 37.6687C29.7774 37.5753 29.7222 37.4844 29.6633 37.397L29.6159 37.3328C29.5697 37.267 29.5225 37.2022 29.4729 37.1411L29.386 37.0425C29.3442 36.995 29.3026 36.9476 29.2589 36.9029L29.1624 36.8114C29.1172 36.7683 29.0719 36.7258 29.0241 36.6855L28.9162 36.5993C28.8681 36.5618 28.82 36.5249 28.7714 36.4904L28.6541 36.4126C28.6036 36.38 28.5521 36.3484 28.4984 36.318C28.4578 36.2944 28.4166 36.2721 28.3753 36.2507C28.321 36.2225 28.2655 36.1964 28.2112 36.1716L28.0816 36.1155C28.0236 36.0919 27.9641 36.0708 27.8707 36.0389L27.7749 36.0073C27.7119 35.9886 27.6474 35.9731 27.5336 35.9462L27.4554 35.9282C27.3832 35.9139 27.3091 35.9043 27.2368 35.8947L27.1258 35.8792C27.0138 35.8677 26.9009 35.8612 26.7862 35.8612C26.6714 35.8612 26.5582 35.8674 26.4466 35.8782L26.3368 35.8937C26.263 35.9037 26.1888 35.9133 26.1166 35.9275L25.9891 35.9576C25.9249 35.9728 25.8601 35.988 25.7965 36.0073L25.6675 36.0504C25.608 36.0708 25.5484 36.0919 25.4907 36.1152L25.3623 36.1713C25.3065 36.1964 25.251 36.2228 25.1973 36.2507C25.1555 36.2727 25.1142 36.2951 25.0727 36.3189C25.0199 36.349 24.9685 36.3804 24.9188 36.4123L24.8022 36.4898C24.7523 36.5249 24.7039 36.5621 24.6468 36.6068L24.5482 36.6855C24.5005 36.7258 24.4552 36.7683 24.377 36.8422L24.3138 36.9026C24.2697 36.9473 24.2285 36.9951 24.1813 37.0484L24.1007 37.1399C24.0501 37.2022 24.003 37.267 23.9568 37.3325L23.9093 37.3967C23.8501 37.4841 23.7949 37.575 23.744 37.6684L23.7009 37.7558C23.6668 37.8225 23.633 37.8889 23.6032 37.9583L23.5579 38.0759C23.5338 38.1376 23.5099 38.1993 23.4894 38.262L23.4509 38.3947C23.4339 38.4555 23.4171 38.5172 23.4029 38.5799C23.3926 38.6261 23.3545 38.8332 23.3545 38.8332L23.3213 39.0615H19.462L18.5195 37.6473L18.5192 36.3947H19.8528C20.2938 36.3947 20.6529 36.0359 20.6529 35.5946V33.9946C20.6529 33.5536 20.2941 33.1944 19.8528 33.1944L18.5182 33.1947V32.6173L21.9133 31.9985L22.5299 31.8546L22.5351 31.8512L23.6483 31.5876C23.7357 31.5668 23.8064 31.5039 23.8371 31.4192L25.4582 26.9563C25.7271 26.2216 26.4324 25.7281 27.2338 25.7281H27.4084L27.4781 25.8882C27.4909 25.918 27.5067 25.9459 27.5216 25.9744L27.5665 26.0612C27.6047 26.1409 27.6441 26.2197 27.6859 26.2966C27.7517 26.416 27.8233 26.5302 27.8981 26.6437L27.9313 26.6945C27.966 26.7476 28.0004 26.8009 28.0383 26.8524L28.0829 26.9194L28.3574 27.2742L27.9145 27.3455C27.4025 27.428 26.9826 27.7999 26.8443 28.2948L25.9963 31.2548C25.9737 31.3348 25.9898 31.4223 26.0397 31.4886C26.09 31.555 26.1697 31.5947 26.2528 31.5947H40.1192C40.2274 31.5947 40.3242 31.5302 40.3654 31.43C40.407 31.3301 40.3841 31.216 40.3078 31.1394L37.1983 28.03C36.9375 27.7691 36.5929 27.5676 36.2018 27.4466L35.8272 27.3309L36.0725 27.0248L36.1702 26.8936C36.2183 26.8294 36.2632 26.7627 36.3085 26.6961C36.383 26.5863 36.4527 26.4737 36.5185 26.3577C36.5585 26.287 36.5979 26.2163 36.6345 26.1434L36.6987 26.0259L36.7957 25.8202L37.0141 25.8832C37.5438 26.0367 38.0472 26.3022 38.4708 26.6523L43.4526 30.8119C43.6511 30.9695 43.879 31.0694 44.1135 31.1016L50.3618 31.992C50.7622 32.0522 51.0528 32.3853 51.0528 32.7841L51.0527 33.728ZM18.5189 35.8611V33.7277H20.1189L20.1198 35.8611H18.5189Z"/>
</mask>
<path d="M50.4393 31.4644L44.1866 30.5736C44.047 30.5547 43.9112 30.4955 43.7884 30.3984L38.811 26.2425C38.3424 25.8555 37.8052 25.5686 37.2148 25.3897L36.9719 25.3162L37.033 25.0699C37.1344 24.6649 37.1853 24.2583 37.1853 23.8616C37.1853 21.0679 34.9123 18.7949 32.1186 18.7949C29.3249 18.7949 27.0519 21.0679 27.0519 23.8616C27.0519 24.1975 27.0894 24.5464 27.1636 24.8975L27.2237 25.1828L26.9338 25.2172C26.0402 25.323 25.2637 25.9343 24.956 26.7732L23.3836 31.1024L22.6452 31.2773L21.912 29.9949H22.5186C22.6656 29.9949 22.7853 29.8755 22.7853 29.7282V28.1282C22.7853 28.0057 22.7022 27.8994 22.5834 27.8693L18.3169 26.803C18.2961 26.7977 18.2744 26.7949 18.2527 26.7949C18.1931 26.7949 18.1345 26.8151 18.0877 26.8514C18.0229 26.9026 17.9854 26.9792 17.9854 27.0617V29.7282C17.9854 29.8755 18.1048 29.9949 18.2521 29.9949H19.1642L20.1799 31.7724L18.6394 32.053C18.2605 32.1256 17.9854 32.4556 17.9854 32.8377V37.7283C17.9854 37.781 18.0009 37.8322 18.03 37.8762L19.0966 39.4762C19.1462 39.5506 19.2294 39.595 19.3187 39.595H23.3254L23.3585 39.8236C23.4569 40.5062 23.7496 41.1329 24.2074 41.6384C24.8583 42.3735 25.7977 42.7949 26.7856 42.7949C28.4953 42.7949 29.9685 41.5174 30.2123 39.8235L30.2451 39.5949H39.3264L39.3596 39.8235C39.6027 41.5178 41.0758 42.7949 42.7859 42.7949C43.7731 42.7949 44.7103 42.3765 45.3601 41.6431C45.4293 41.568 45.4925 41.4877 45.5574 41.4052C45.6098 41.3376 45.6572 41.2696 45.7006 41.198L45.7859 41.0625C45.8216 41.0008 45.8566 40.94 45.8855 40.8783C45.9329 40.7899 45.9742 40.6956 46.0067 40.6081C46.0486 40.5126 46.079 40.4174 46.1007 40.3349C46.114 40.2952 46.1314 40.244 46.1497 40.1559C46.1674 40.0973 46.1789 40.0393 46.1894 39.9801C46.1953 39.9488 46.2455 39.5949 46.2455 39.5949H50.2525C50.9876 39.5949 51.5858 38.9966 51.5858 38.2616V32.7843C51.5858 32.12 51.1029 31.5649 50.4398 31.4644L50.4393 31.4644ZM32.1188 19.328C34.6185 19.328 36.6521 21.3616 36.6521 23.8613C36.6521 24.396 36.5569 24.9239 36.3693 25.4287C36.0886 26.2007 35.5995 26.879 34.9582 27.3882C34.4279 27.8218 33.7958 28.1313 33.1284 28.2832C32.7934 28.3567 32.4535 28.394 32.1174 28.394C31.9493 28.394 31.7818 28.385 31.614 28.3667C31.4465 28.3481 31.2791 28.3205 31.1091 28.2829C30.4417 28.1303 29.8074 27.8196 29.2774 27.3863C28.6221 26.8628 28.1272 26.165 27.8471 25.3707C27.6737 24.8909 27.5856 24.3832 27.5856 23.8612C27.5856 21.3616 29.6192 19.3279 32.1189 19.3279L32.1188 19.328ZM35.5003 27.8614C35.9925 27.8614 36.4741 28.0605 36.8212 28.4073L39.4754 31.0614H33.4522V28.7509L33.7763 28.6495C33.8092 28.638 33.9586 28.5757 33.9586 28.5757C34.0684 28.5326 34.1788 28.4898 34.2855 28.4386C34.3305 28.4169 34.3739 28.393 34.4177 28.3691L34.507 28.3207C34.5954 28.2736 34.6831 28.2264 34.7684 28.1737C34.8221 28.1405 34.8732 28.1046 34.925 28.0686L35.0485 27.9852C35.0832 27.9628 35.1176 27.9405 35.1508 27.9154L35.2218 27.8614L35.5003 27.8614ZM32.919 28.8734V31.0614H31.319V28.8732L31.6121 28.9026C31.782 28.92 31.9504 28.9287 32.1188 28.9287C32.2872 28.9287 32.456 28.92 32.6256 28.9029L32.919 28.8734ZM30.7855 28.7509V31.0614H26.6058L27.3569 28.4401C27.4521 28.0996 27.7675 27.8614 28.1242 27.8614H29.0165L29.0878 27.9157C29.1207 27.9405 29.1554 27.9628 29.1901 27.9852L29.3198 28.0726C29.3682 28.1064 29.4165 28.1399 29.4665 28.1709C29.5598 28.2289 29.6572 28.2807 29.7546 28.3325L29.8216 28.3691C29.8647 28.393 29.9078 28.4169 29.9524 28.4383C30.0622 28.491 30.1761 28.535 30.2899 28.5797L30.369 28.6123C30.4003 28.6256 30.4316 28.6389 30.4645 28.6504L30.7855 28.7509ZM18.519 29.4614V27.4027L22.2524 28.3359L22.2521 29.4614H18.519ZM19.7784 29.9948H21.2975L22.1129 31.4202L20.7358 31.6711L19.7784 29.9948ZM26.7857 42.2614C25.9511 42.2614 25.1556 41.9038 24.6048 41.2823C24.1194 40.7467 23.8521 40.0523 23.8521 39.3278C23.8521 37.7105 25.168 36.3946 26.7853 36.3946C28.4027 36.3946 29.7186 37.7105 29.7186 39.3278C29.7189 40.9455 28.403 42.2614 26.7857 42.2614ZM45.6619 39.9001C45.6557 39.9385 45.648 39.977 45.6343 40.0148L45.6117 40.1116L45.5897 40.182C45.5723 40.2477 45.5509 40.3181 45.5124 40.4078C45.4851 40.4803 45.4541 40.5532 45.4088 40.6391C45.385 40.69 45.3583 40.7359 45.3316 40.7824L45.3015 40.8345L45.2581 40.8987C45.2215 40.9626 45.1803 41.0215 45.1331 41.0826C45.0804 41.1499 45.0277 41.2175 44.9653 41.2848C44.4149 41.9054 43.6205 42.2615 42.786 42.2615C41.1687 42.2615 39.8528 40.9456 39.8528 39.3282C39.8528 37.7108 41.1687 36.3949 42.786 36.3949C44.4034 36.3949 45.7193 37.7108 45.7193 39.3282C45.7193 39.5075 45.7013 39.6898 45.6619 39.9001ZM51.0527 36.3946H48.8715L48.4447 34.2612H51.0527V36.3946ZM51.0527 33.728H48.1194C48.0391 33.728 47.9641 33.7637 47.9132 33.826C47.862 33.8877 47.8422 33.9684 47.858 34.0472L48.3914 36.714C48.4159 36.8378 48.5257 36.928 48.6526 36.928H51.0527V38.2613C51.0527 38.7023 50.6939 39.0615 50.2525 39.0615H46.2509L46.2177 38.8332C46.2177 38.8332 46.1795 38.626 46.169 38.5792C46.155 38.5169 46.1386 38.4555 46.1119 38.3606L46.0834 38.2629C46.0629 38.1996 46.0387 38.1379 45.9981 38.0324L45.9693 37.9583C45.9395 37.8892 45.9057 37.8228 45.8716 37.7561L45.8285 37.6686C45.7773 37.5753 45.7221 37.4844 45.6632 37.397L45.6157 37.3328C45.5695 37.267 45.5223 37.2022 45.4727 37.1411L45.3859 37.0425C45.344 36.995 45.3025 36.9476 45.2587 36.9029L45.1623 36.8114C45.117 36.7683 45.0717 36.7258 45.024 36.6855L44.916 36.5993C44.868 36.5618 44.8199 36.5249 44.7712 36.4904L44.654 36.4126C44.6034 36.38 44.5519 36.3484 44.4983 36.318C44.4576 36.2944 44.4164 36.2721 44.3751 36.2507C44.3209 36.2225 44.2654 36.1964 44.2111 36.1716L44.0814 36.1155C44.0234 36.0919 43.9639 36.0708 43.8706 36.0389L43.7747 36.0072C43.7118 35.9886 43.6473 35.9731 43.5334 35.9461L43.4553 35.9281C43.383 35.9139 43.3089 35.9043 43.2366 35.8947L43.1256 35.8791C43.0136 35.8677 42.9008 35.8612 42.786 35.8612C42.6713 35.8612 42.5581 35.8674 42.4464 35.8782L42.3366 35.8937C42.2628 35.9036 42.1887 35.9133 42.1164 35.9275L41.989 35.9576C41.9248 35.9728 41.8599 35.988 41.7964 36.0072L41.6673 36.0503C41.6078 36.0708 41.5482 36.0919 41.4906 36.1152L41.3622 36.1713C41.3063 36.1964 41.2508 36.2228 41.1972 36.2507C41.1553 36.2727 41.1141 36.295 41.0725 36.3189C41.0198 36.349 40.9683 36.3803 40.9187 36.4123L40.8021 36.4898C40.7521 36.5249 40.7037 36.5621 40.6467 36.6067L40.548 36.6855C40.5003 36.7258 40.455 36.7683 40.3769 36.8421L40.3136 36.9026C40.2695 36.9473 40.2283 36.995 40.1812 37.0484L40.1005 37.1399C40.05 37.2022 40.0028 37.267 39.9566 37.3325L39.9092 37.3967C39.8499 37.4841 39.7947 37.575 39.7439 37.6683L39.7008 37.7558C39.6666 37.8225 39.6328 37.8888 39.6031 37.9583L39.5578 38.0759C39.5336 38.1376 39.5097 38.1993 39.4892 38.262L39.4508 38.3947C39.4337 38.4555 39.417 38.5172 39.4027 38.5798C39.3925 38.6261 39.3543 38.8332 39.3543 38.8332L39.3211 39.0615H30.251L30.2178 38.8332C30.2178 38.8332 30.1797 38.6261 30.1692 38.5792C30.1552 38.5169 30.1388 38.4555 30.1121 38.3606L30.0836 38.2629C30.0631 38.1996 30.0389 38.1379 29.9983 38.0325L29.9694 37.9583C29.9396 37.8892 29.9058 37.8228 29.8717 37.7561L29.8286 37.6687C29.7774 37.5753 29.7222 37.4844 29.6633 37.397L29.6159 37.3328C29.5697 37.267 29.5225 37.2022 29.4729 37.1411L29.386 37.0425C29.3442 36.995 29.3026 36.9476 29.2589 36.9029L29.1624 36.8114C29.1172 36.7683 29.0719 36.7258 29.0241 36.6855L28.9162 36.5993C28.8681 36.5618 28.82 36.5249 28.7714 36.4904L28.6541 36.4126C28.6036 36.38 28.5521 36.3484 28.4984 36.318C28.4578 36.2944 28.4166 36.2721 28.3753 36.2507C28.321 36.2225 28.2655 36.1964 28.2112 36.1716L28.0816 36.1155C28.0236 36.0919 27.9641 36.0708 27.8707 36.0389L27.7749 36.0073C27.7119 35.9886 27.6474 35.9731 27.5336 35.9462L27.4554 35.9282C27.3832 35.9139 27.3091 35.9043 27.2368 35.8947L27.1258 35.8792C27.0138 35.8677 26.9009 35.8612 26.7862 35.8612C26.6714 35.8612 26.5582 35.8674 26.4466 35.8782L26.3368 35.8937C26.263 35.9037 26.1888 35.9133 26.1166 35.9275L25.9891 35.9576C25.9249 35.9728 25.8601 35.988 25.7965 36.0073L25.6675 36.0504C25.608 36.0708 25.5484 36.0919 25.4907 36.1152L25.3623 36.1713C25.3065 36.1964 25.251 36.2228 25.1973 36.2507C25.1555 36.2727 25.1142 36.2951 25.0727 36.3189C25.0199 36.349 24.9685 36.3804 24.9188 36.4123L24.8022 36.4898C24.7523 36.5249 24.7039 36.5621 24.6468 36.6068L24.5482 36.6855C24.5005 36.7258 24.4552 36.7683 24.377 36.8422L24.3138 36.9026C24.2697 36.9473 24.2285 36.9951 24.1813 37.0484L24.1007 37.1399C24.0501 37.2022 24.003 37.267 23.9568 37.3325L23.9093 37.3967C23.8501 37.4841 23.7949 37.575 23.744 37.6684L23.7009 37.7558C23.6668 37.8225 23.633 37.8889 23.6032 37.9583L23.5579 38.0759C23.5338 38.1376 23.5099 38.1993 23.4894 38.262L23.4509 38.3947C23.4339 38.4555 23.4171 38.5172 23.4029 38.5799C23.3926 38.6261 23.3545 38.8332 23.3545 38.8332L23.3213 39.0615H19.462L18.5195 37.6473L18.5192 36.3947H19.8528C20.2938 36.3947 20.6529 36.0359 20.6529 35.5946V33.9946C20.6529 33.5536 20.2941 33.1944 19.8528 33.1944L18.5182 33.1947V32.6173L21.9133 31.9985L22.5299 31.8546L22.5351 31.8512L23.6483 31.5876C23.7357 31.5668 23.8064 31.5039 23.8371 31.4192L25.4582 26.9563C25.7271 26.2216 26.4324 25.7281 27.2338 25.7281H27.4084L27.4781 25.8882C27.4909 25.918 27.5067 25.9459 27.5216 25.9744L27.5665 26.0612C27.6047 26.1409 27.6441 26.2197 27.6859 26.2966C27.7517 26.416 27.8233 26.5302 27.8981 26.6437L27.9313 26.6945C27.966 26.7476 28.0004 26.8009 28.0383 26.8524L28.0829 26.9194L28.3574 27.2742L27.9145 27.3455C27.4025 27.428 26.9826 27.7999 26.8443 28.2948L25.9963 31.2548C25.9737 31.3348 25.9898 31.4223 26.0397 31.4886C26.09 31.555 26.1697 31.5947 26.2528 31.5947H40.1192C40.2274 31.5947 40.3242 31.5302 40.3654 31.43C40.407 31.3301 40.3841 31.216 40.3078 31.1394L37.1983 28.03C36.9375 27.7691 36.5929 27.5676 36.2018 27.4466L35.8272 27.3309L36.0725 27.0248L36.1702 26.8936C36.2183 26.8294 36.2632 26.7627 36.3085 26.6961C36.383 26.5863 36.4527 26.4737 36.5185 26.3577C36.5585 26.287 36.5979 26.2163 36.6345 26.1434L36.6987 26.0259L36.7957 25.8202L37.0141 25.8832C37.5438 26.0367 38.0472 26.3022 38.4708 26.6523L43.4526 30.8119C43.6511 30.9695 43.879 31.0694 44.1135 31.1016L50.3618 31.992C50.7622 32.0522 51.0528 32.3853 51.0528 32.7841L51.0527 33.728ZM18.5189 35.8611V33.7277H20.1189L20.1198 35.8611H18.5189Z" fill="white"/>
<path d="M50.4393 31.4644L44.1866 30.5736C44.047 30.5547 43.9112 30.4955 43.7884 30.3984L38.811 26.2425C38.3424 25.8555 37.8052 25.5686 37.2148 25.3897L36.9719 25.3162L37.033 25.0699C37.1344 24.6649 37.1853 24.2583 37.1853 23.8616C37.1853 21.0679 34.9123 18.7949 32.1186 18.7949C29.3249 18.7949 27.0519 21.0679 27.0519 23.8616C27.0519 24.1975 27.0894 24.5464 27.1636 24.8975L27.2237 25.1828L26.9338 25.2172C26.0402 25.323 25.2637 25.9343 24.956 26.7732L23.3836 31.1024L22.6452 31.2773L21.912 29.9949H22.5186C22.6656 29.9949 22.7853 29.8755 22.7853 29.7282V28.1282C22.7853 28.0057 22.7022 27.8994 22.5834 27.8693L18.3169 26.803C18.2961 26.7977 18.2744 26.7949 18.2527 26.7949C18.1931 26.7949 18.1345 26.8151 18.0877 26.8514C18.0229 26.9026 17.9854 26.9792 17.9854 27.0617V29.7282C17.9854 29.8755 18.1048 29.9949 18.2521 29.9949H19.1642L20.1799 31.7724L18.6394 32.053C18.2605 32.1256 17.9854 32.4556 17.9854 32.8377V37.7283C17.9854 37.781 18.0009 37.8322 18.03 37.8762L19.0966 39.4762C19.1462 39.5506 19.2294 39.595 19.3187 39.595H23.3254L23.3585 39.8236C23.4569 40.5062 23.7496 41.1329 24.2074 41.6384C24.8583 42.3735 25.7977 42.7949 26.7856 42.7949C28.4953 42.7949 29.9685 41.5174 30.2123 39.8235L30.2451 39.5949H39.3264L39.3596 39.8235C39.6027 41.5178 41.0758 42.7949 42.7859 42.7949C43.7731 42.7949 44.7103 42.3765 45.3601 41.6431C45.4293 41.568 45.4925 41.4877 45.5574 41.4052C45.6098 41.3376 45.6572 41.2696 45.7006 41.198L45.7859 41.0625C45.8216 41.0008 45.8566 40.94 45.8855 40.8783C45.9329 40.7899 45.9742 40.6956 46.0067 40.6081C46.0486 40.5126 46.079 40.4174 46.1007 40.3349C46.114 40.2952 46.1314 40.244 46.1497 40.1559C46.1674 40.0973 46.1789 40.0393 46.1894 39.9801C46.1953 39.9488 46.2455 39.5949 46.2455 39.5949H50.2525C50.9876 39.5949 51.5858 38.9966 51.5858 38.2616V32.7843C51.5858 32.12 51.1029 31.5649 50.4398 31.4644L50.4393 31.4644ZM32.1188 19.328C34.6185 19.328 36.6521 21.3616 36.6521 23.8613C36.6521 24.396 36.5569 24.9239 36.3693 25.4287C36.0886 26.2007 35.5995 26.879 34.9582 27.3882C34.4279 27.8218 33.7958 28.1313 33.1284 28.2832C32.7934 28.3567 32.4535 28.394 32.1174 28.394C31.9493 28.394 31.7818 28.385 31.614 28.3667C31.4465 28.3481 31.2791 28.3205 31.1091 28.2829C30.4417 28.1303 29.8074 27.8196 29.2774 27.3863C28.6221 26.8628 28.1272 26.165 27.8471 25.3707C27.6737 24.8909 27.5856 24.3832 27.5856 23.8612C27.5856 21.3616 29.6192 19.3279 32.1189 19.3279L32.1188 19.328ZM35.5003 27.8614C35.9925 27.8614 36.4741 28.0605 36.8212 28.4073L39.4754 31.0614H33.4522V28.7509L33.7763 28.6495C33.8092 28.638 33.9586 28.5757 33.9586 28.5757C34.0684 28.5326 34.1788 28.4898 34.2855 28.4386C34.3305 28.4169 34.3739 28.393 34.4177 28.3691L34.507 28.3207C34.5954 28.2736 34.6831 28.2264 34.7684 28.1737C34.8221 28.1405 34.8732 28.1046 34.925 28.0686L35.0485 27.9852C35.0832 27.9628 35.1176 27.9405 35.1508 27.9154L35.2218 27.8614L35.5003 27.8614ZM32.919 28.8734V31.0614H31.319V28.8732L31.6121 28.9026C31.782 28.92 31.9504 28.9287 32.1188 28.9287C32.2872 28.9287 32.456 28.92 32.6256 28.9029L32.919 28.8734ZM30.7855 28.7509V31.0614H26.6058L27.3569 28.4401C27.4521 28.0996 27.7675 27.8614 28.1242 27.8614H29.0165L29.0878 27.9157C29.1207 27.9405 29.1554 27.9628 29.1901 27.9852L29.3198 28.0726C29.3682 28.1064 29.4165 28.1399 29.4665 28.1709C29.5598 28.2289 29.6572 28.2807 29.7546 28.3325L29.8216 28.3691C29.8647 28.393 29.9078 28.4169 29.9524 28.4383C30.0622 28.491 30.1761 28.535 30.2899 28.5797L30.369 28.6123C30.4003 28.6256 30.4316 28.6389 30.4645 28.6504L30.7855 28.7509ZM18.519 29.4614V27.4027L22.2524 28.3359L22.2521 29.4614H18.519ZM19.7784 29.9948H21.2975L22.1129 31.4202L20.7358 31.6711L19.7784 29.9948ZM26.7857 42.2614C25.9511 42.2614 25.1556 41.9038 24.6048 41.2823C24.1194 40.7467 23.8521 40.0523 23.8521 39.3278C23.8521 37.7105 25.168 36.3946 26.7853 36.3946C28.4027 36.3946 29.7186 37.7105 29.7186 39.3278C29.7189 40.9455 28.403 42.2614 26.7857 42.2614ZM45.6619 39.9001C45.6557 39.9385 45.648 39.977 45.6343 40.0148L45.6117 40.1116L45.5897 40.182C45.5723 40.2477 45.5509 40.3181 45.5124 40.4078C45.4851 40.4803 45.4541 40.5532 45.4088 40.6391C45.385 40.69 45.3583 40.7359 45.3316 40.7824L45.3015 40.8345L45.2581 40.8987C45.2215 40.9626 45.1803 41.0215 45.1331 41.0826C45.0804 41.1499 45.0277 41.2175 44.9653 41.2848C44.4149 41.9054 43.6205 42.2615 42.786 42.2615C41.1687 42.2615 39.8528 40.9456 39.8528 39.3282C39.8528 37.7108 41.1687 36.3949 42.786 36.3949C44.4034 36.3949 45.7193 37.7108 45.7193 39.3282C45.7193 39.5075 45.7013 39.6898 45.6619 39.9001ZM51.0527 36.3946H48.8715L48.4447 34.2612H51.0527V36.3946ZM51.0527 33.728H48.1194C48.0391 33.728 47.9641 33.7637 47.9132 33.826C47.862 33.8877 47.8422 33.9684 47.858 34.0472L48.3914 36.714C48.4159 36.8378 48.5257 36.928 48.6526 36.928H51.0527V38.2613C51.0527 38.7023 50.6939 39.0615 50.2525 39.0615H46.2509L46.2177 38.8332C46.2177 38.8332 46.1795 38.626 46.169 38.5792C46.155 38.5169 46.1386 38.4555 46.1119 38.3606L46.0834 38.2629C46.0629 38.1996 46.0387 38.1379 45.9981 38.0324L45.9693 37.9583C45.9395 37.8892 45.9057 37.8228 45.8716 37.7561L45.8285 37.6686C45.7773 37.5753 45.7221 37.4844 45.6632 37.397L45.6157 37.3328C45.5695 37.267 45.5223 37.2022 45.4727 37.1411L45.3859 37.0425C45.344 36.995 45.3025 36.9476 45.2587 36.9029L45.1623 36.8114C45.117 36.7683 45.0717 36.7258 45.024 36.6855L44.916 36.5993C44.868 36.5618 44.8199 36.5249 44.7712 36.4904L44.654 36.4126C44.6034 36.38 44.5519 36.3484 44.4983 36.318C44.4576 36.2944 44.4164 36.2721 44.3751 36.2507C44.3209 36.2225 44.2654 36.1964 44.2111 36.1716L44.0814 36.1155C44.0234 36.0919 43.9639 36.0708 43.8706 36.0389L43.7747 36.0072C43.7118 35.9886 43.6473 35.9731 43.5334 35.9461L43.4553 35.9281C43.383 35.9139 43.3089 35.9043 43.2366 35.8947L43.1256 35.8791C43.0136 35.8677 42.9008 35.8612 42.786 35.8612C42.6713 35.8612 42.5581 35.8674 42.4464 35.8782L42.3366 35.8937C42.2628 35.9036 42.1887 35.9133 42.1164 35.9275L41.989 35.9576C41.9248 35.9728 41.8599 35.988 41.7964 36.0072L41.6673 36.0503C41.6078 36.0708 41.5482 36.0919 41.4906 36.1152L41.3622 36.1713C41.3063 36.1964 41.2508 36.2228 41.1972 36.2507C41.1553 36.2727 41.1141 36.295 41.0725 36.3189C41.0198 36.349 40.9683 36.3803 40.9187 36.4123L40.8021 36.4898C40.7521 36.5249 40.7037 36.5621 40.6467 36.6067L40.548 36.6855C40.5003 36.7258 40.455 36.7683 40.3769 36.8421L40.3136 36.9026C40.2695 36.9473 40.2283 36.995 40.1812 37.0484L40.1005 37.1399C40.05 37.2022 40.0028 37.267 39.9566 37.3325L39.9092 37.3967C39.8499 37.4841 39.7947 37.575 39.7439 37.6683L39.7008 37.7558C39.6666 37.8225 39.6328 37.8888 39.6031 37.9583L39.5578 38.0759C39.5336 38.1376 39.5097 38.1993 39.4892 38.262L39.4508 38.3947C39.4337 38.4555 39.417 38.5172 39.4027 38.5798C39.3925 38.6261 39.3543 38.8332 39.3543 38.8332L39.3211 39.0615H30.251L30.2178 38.8332C30.2178 38.8332 30.1797 38.6261 30.1692 38.5792C30.1552 38.5169 30.1388 38.4555 30.1121 38.3606L30.0836 38.2629C30.0631 38.1996 30.0389 38.1379 29.9983 38.0325L29.9694 37.9583C29.9396 37.8892 29.9058 37.8228 29.8717 37.7561L29.8286 37.6687C29.7774 37.5753 29.7222 37.4844 29.6633 37.397L29.6159 37.3328C29.5697 37.267 29.5225 37.2022 29.4729 37.1411L29.386 37.0425C29.3442 36.995 29.3026 36.9476 29.2589 36.9029L29.1624 36.8114C29.1172 36.7683 29.0719 36.7258 29.0241 36.6855L28.9162 36.5993C28.8681 36.5618 28.82 36.5249 28.7714 36.4904L28.6541 36.4126C28.6036 36.38 28.5521 36.3484 28.4984 36.318C28.4578 36.2944 28.4166 36.2721 28.3753 36.2507C28.321 36.2225 28.2655 36.1964 28.2112 36.1716L28.0816 36.1155C28.0236 36.0919 27.9641 36.0708 27.8707 36.0389L27.7749 36.0073C27.7119 35.9886 27.6474 35.9731 27.5336 35.9462L27.4554 35.9282C27.3832 35.9139 27.3091 35.9043 27.2368 35.8947L27.1258 35.8792C27.0138 35.8677 26.9009 35.8612 26.7862 35.8612C26.6714 35.8612 26.5582 35.8674 26.4466 35.8782L26.3368 35.8937C26.263 35.9037 26.1888 35.9133 26.1166 35.9275L25.9891 35.9576C25.9249 35.9728 25.8601 35.988 25.7965 36.0073L25.6675 36.0504C25.608 36.0708 25.5484 36.0919 25.4907 36.1152L25.3623 36.1713C25.3065 36.1964 25.251 36.2228 25.1973 36.2507C25.1555 36.2727 25.1142 36.2951 25.0727 36.3189C25.0199 36.349 24.9685 36.3804 24.9188 36.4123L24.8022 36.4898C24.7523 36.5249 24.7039 36.5621 24.6468 36.6068L24.5482 36.6855C24.5005 36.7258 24.4552 36.7683 24.377 36.8422L24.3138 36.9026C24.2697 36.9473 24.2285 36.9951 24.1813 37.0484L24.1007 37.1399C24.0501 37.2022 24.003 37.267 23.9568 37.3325L23.9093 37.3967C23.8501 37.4841 23.7949 37.575 23.744 37.6684L23.7009 37.7558C23.6668 37.8225 23.633 37.8889 23.6032 37.9583L23.5579 38.0759C23.5338 38.1376 23.5099 38.1993 23.4894 38.262L23.4509 38.3947C23.4339 38.4555 23.4171 38.5172 23.4029 38.5799C23.3926 38.6261 23.3545 38.8332 23.3545 38.8332L23.3213 39.0615H19.462L18.5195 37.6473L18.5192 36.3947H19.8528C20.2938 36.3947 20.6529 36.0359 20.6529 35.5946V33.9946C20.6529 33.5536 20.2941 33.1944 19.8528 33.1944L18.5182 33.1947V32.6173L21.9133 31.9985L22.5299 31.8546L22.5351 31.8512L23.6483 31.5876C23.7357 31.5668 23.8064 31.5039 23.8371 31.4192L25.4582 26.9563C25.7271 26.2216 26.4324 25.7281 27.2338 25.7281H27.4084L27.4781 25.8882C27.4909 25.918 27.5067 25.9459 27.5216 25.9744L27.5665 26.0612C27.6047 26.1409 27.6441 26.2197 27.6859 26.2966C27.7517 26.416 27.8233 26.5302 27.8981 26.6437L27.9313 26.6945C27.966 26.7476 28.0004 26.8009 28.0383 26.8524L28.0829 26.9194L28.3574 27.2742L27.9145 27.3455C27.4025 27.428 26.9826 27.7999 26.8443 28.2948L25.9963 31.2548C25.9737 31.3348 25.9898 31.4223 26.0397 31.4886C26.09 31.555 26.1697 31.5947 26.2528 31.5947H40.1192C40.2274 31.5947 40.3242 31.5302 40.3654 31.43C40.407 31.3301 40.3841 31.216 40.3078 31.1394L37.1983 28.03C36.9375 27.7691 36.5929 27.5676 36.2018 27.4466L35.8272 27.3309L36.0725 27.0248L36.1702 26.8936C36.2183 26.8294 36.2632 26.7627 36.3085 26.6961C36.383 26.5863 36.4527 26.4737 36.5185 26.3577C36.5585 26.287 36.5979 26.2163 36.6345 26.1434L36.6987 26.0259L36.7957 25.8202L37.0141 25.8832C37.5438 26.0367 38.0472 26.3022 38.4708 26.6523L43.4526 30.8119C43.6511 30.9695 43.879 31.0694 44.1135 31.1016L50.3618 31.992C50.7622 32.0522 51.0528 32.3853 51.0528 32.7841L51.0527 33.728ZM18.5189 35.8611V33.7277H20.1189L20.1198 35.8611H18.5189Z" stroke="white" stroke-width="0.6" mask="url(#path-2-outside-1_1_2872)"/>
<path d="M35.2027 33.462L35.2027 33.4617C35.2022 33.2324 35.0161 33.0453 34.786 33.0453H33.7194C33.4896 33.0453 33.3026 33.2318 33.3026 33.462C33.3026 33.6918 33.4891 33.8788 33.7194 33.8788H34.786C35.0157 33.8788 35.2027 33.6923 35.2027 33.462Z" fill="white" stroke="white" stroke-width="0.3"/>
<path d="M32.3048 24.2342L32.3053 24.2339L34.4382 23.1676C34.4383 23.1675 34.4384 23.1675 34.4385 23.1674C34.5386 23.1178 34.6127 23.031 34.6478 22.9269L34.648 22.9261C34.6827 22.8212 34.675 22.7079 34.6252 22.6082L34.625 22.6078C34.5538 22.4663 34.4106 22.3776 34.2522 22.3776C34.1877 22.3776 34.1245 22.3923 34.0654 22.4222C34.0652 22.4223 34.065 22.4224 34.0649 22.4225L32.5355 23.1871V20.6613C32.5355 20.4315 32.349 20.2445 32.1188 20.2445C31.889 20.2445 31.7021 20.431 31.7021 20.6613V23.8613C31.7021 24.0049 31.7772 24.1401 31.8995 24.2156L31.8999 24.2159C31.9655 24.2561 32.0412 24.278 32.1188 24.278C32.1838 24.278 32.2478 24.2624 32.3048 24.2342Z" fill="white" stroke="white" stroke-width="0.3"/>
</svg>
