<svg width="65" height="64" viewBox="0 0 65 64" fill="none" xmlns="http://www.w3.org/2000/svg">
<rect x="0.5" width="64" height="64" rx="32" fill="#2463EB"/>
<g clip-path="url(#clip0_1_2856)">
<mask id="mask0_1_2856" style="mask-type:luminance" maskUnits="userSpaceOnUse" x="20" y="20" width="25" height="24">
<path d="M20.6917 20.1914H44.3077V43.8075H20.6917V20.1914Z" fill="white"/>
</mask>
<g mask="url(#mask0_1_2856)">
<path d="M42.8317 21.299H42.4627C42.2589 21.299 42.0938 21.4642 42.0938 21.668C42.0938 21.8718 42.2589 22.0369 42.4627 22.0369H42.8317C43.0274 22.0371 43.2149 22.1149 43.3534 22.2534C43.4918 22.3916 43.5696 22.5793 43.5698 22.775V35.3211H21.4298V22.775C21.4302 22.5793 21.508 22.3916 21.6462 22.2534C21.7847 22.1149 21.9722 22.0371 22.1679 22.0369H22.5369C22.7407 22.0369 22.9058 21.8718 22.9058 21.668C22.9058 21.4642 22.7407 21.299 22.5369 21.299H22.1679C21.7766 21.2994 21.4014 21.455 21.1248 21.7317C20.8479 22.0086 20.6923 22.3837 20.6919 22.7751V36.7972C20.6923 37.1885 20.8479 37.5637 21.1248 37.8404C21.4014 38.1171 21.7766 38.2727 22.1679 38.2733H27.9809L27.4069 40.8562H25.8578C25.654 40.8562 25.4888 41.0215 25.4888 41.2253V43.4392C25.4888 43.537 25.5276 43.6309 25.5968 43.7001C25.6661 43.7694 25.76 43.8082 25.8578 43.8082H39.1417C39.2395 43.8082 39.3334 43.7693 39.4026 43.7001C39.4718 43.6309 39.5106 43.537 39.5106 43.4392V41.2253C39.5106 41.1273 39.4718 41.0336 39.4026 40.9644C39.3334 40.8952 39.2395 40.8562 39.1417 40.8562H37.5926L37.0186 38.2731L42.8315 38.2733C43.2228 38.2728 43.598 38.1171 43.8749 37.8404C44.1516 37.5638 44.3072 37.1886 44.3076 36.7973V22.7751C44.3072 22.3838 44.1516 22.0086 43.8749 21.7317C43.598 21.4551 43.2228 21.2994 42.8315 21.2991L42.8317 21.299ZM38.7728 43.0701H26.2267V41.5941H38.7728V43.0701ZM36.8368 40.8562L28.1626 40.856L28.7366 38.273L36.2624 38.2732L36.8368 40.8562ZM43.5699 36.7971C43.5698 36.9927 43.4919 37.1804 43.3535 37.3188C43.2151 37.457 43.0276 37.5349 42.8318 37.535H22.1679C21.9722 37.5349 21.7847 37.457 21.6463 37.3188C21.508 37.1804 21.4302 36.9927 21.4298 36.7971V36.059H43.5698L43.5699 36.7971ZM35.0828 26.4649C35.0828 26.5629 35.0439 26.6566 34.9747 26.7259C34.9055 26.7951 34.8118 26.8339 34.7138 26.8339H33.9759C33.7721 26.8339 33.6067 26.6687 33.6067 26.4649C33.6067 26.2611 33.7721 26.096 33.9759 26.096H34.7138C34.8118 26.096 34.9055 26.1348 34.9747 26.204C35.0439 26.2732 35.0828 26.3672 35.0828 26.4649ZM35.0828 27.9409C35.0828 28.0387 35.0439 28.1326 34.9747 28.2019C34.9055 28.2711 34.8118 28.3099 34.7138 28.3099H33.9759C33.7721 28.3099 33.6067 28.1447 33.6067 27.9409C33.6067 27.7371 33.7721 27.572 33.9759 27.572H34.7138C34.8118 27.572 34.9055 27.6108 34.9747 27.68C35.0439 27.7492 35.0828 27.8432 35.0828 27.9409ZM35.4517 25.3579H33.9759C33.7721 25.3579 33.6068 25.1927 33.6068 24.9889C33.6068 24.7851 33.7721 24.62 33.9759 24.62H35.4519C35.6557 24.62 35.8209 24.7851 35.8209 24.9889C35.8209 25.1927 35.6557 25.3579 35.4519 25.3579H35.4517ZM33.6068 23.5129C33.6068 23.3091 33.7721 23.144 33.9759 23.144H38.0348C38.2386 23.144 38.4038 23.3091 38.4038 23.5129C38.4038 23.7167 38.2386 23.8819 38.0348 23.8819H33.9759C33.7721 23.8819 33.6068 23.7167 33.6068 23.5129ZM33.6068 22.0369C33.6068 21.8331 33.7721 21.668 33.9759 21.668H38.0348C38.2386 21.668 38.4038 21.8331 38.4038 22.0369C38.4038 22.2407 38.2386 22.4059 38.0348 22.4059H33.9759C33.7721 22.4059 33.6068 22.2407 33.6068 22.0369ZM24.0129 31.2619H34.7139C34.9177 31.2619 35.0829 31.0968 35.0829 30.893C35.0829 30.6892 34.9177 30.524 34.7139 30.524H32.9369C33.0127 30.3087 33.1533 30.1223 33.3394 29.9901C33.5254 29.8579 33.7477 29.7866 33.976 29.7859H34.7139C34.9177 29.7859 35.0829 29.6207 35.0829 29.4169C35.0829 29.2131 34.9177 29.048 34.7139 29.048H33.976C33.5765 29.0476 33.188 29.1774 32.869 29.4179V22.0369C32.8694 21.7434 32.986 21.4621 33.1936 21.2545C33.4011 21.0471 33.6825 20.9302 33.976 20.9299H39.1421V29.0482H38.404V26.4651C38.4013 26.3858 38.3756 26.3089 38.3302 26.2437L37.2232 24.7677H37.2234C37.1507 24.6795 37.0425 24.6282 36.928 24.6282C36.8138 24.6282 36.7055 24.6795 36.6329 24.7677L35.5258 26.2437H35.526C35.4806 26.3089 35.4549 26.3858 35.4522 26.4651V33.1073C35.4522 33.6346 35.7334 34.1219 36.1901 34.3856C36.6468 34.6493 37.2094 34.6493 37.6661 34.3856C38.1228 34.1219 38.404 33.6346 38.404 33.1073V31.2624H40.9871C41.085 31.2624 41.1788 31.2235 41.248 31.1543C41.3172 31.0851 41.356 30.9912 41.356 30.8934V21.6684C41.356 21.5704 41.3172 21.4767 41.248 21.4075C41.1788 21.3383 41.085 21.2994 40.9871 21.2994H39.88V20.5613C39.88 20.4636 39.8412 20.3696 39.772 20.3004C39.7028 20.2312 39.609 20.1924 39.5111 20.1924H33.9761C33.393 20.194 32.8452 20.472 32.5001 20.9418C32.1547 20.472 31.607 20.194 31.0241 20.1924H25.4891C25.2853 20.1924 25.1201 20.3575 25.1201 20.5613V21.2994H24.0131C23.8093 21.2994 23.6441 21.4646 23.6441 21.6684V30.8934C23.6441 30.9912 23.6829 31.0851 23.7521 31.1543C23.8213 31.2235 23.9153 31.2624 24.0131 31.2624L24.0129 31.2619ZM36.19 26.8339H37.666V32H36.19V26.8339ZM36.9279 25.6038L37.2971 26.096H36.559L36.9279 25.6038ZM36.9279 33.8449C36.7324 33.8447 36.5447 33.7669 36.4065 33.6285C36.268 33.4902 36.1902 33.3025 36.19 33.1068V32.7378H37.666V33.1068C37.6658 33.3025 37.588 33.4902 37.4496 33.6285C37.3114 33.7669 37.1237 33.8447 36.9279 33.8449ZM40.6181 22.0366V30.5238H38.404V29.7857H39.511C39.609 29.7857 39.7027 29.7469 39.772 29.6777C39.8412 29.6085 39.88 29.5145 39.88 29.4167V22.0367L40.6181 22.0366ZM25.8581 20.9296H31.0242C31.3177 20.9299 31.599 21.0467 31.8066 21.2542C32.014 21.4618 32.1309 21.7431 32.131 22.0366V29.4175C31.8121 29.1771 31.4235 29.0473 31.0242 29.0477H25.8581L25.8581 20.9296ZM24.3821 22.0366H25.12L25.1202 29.4166C25.1202 29.5144 25.159 29.6083 25.2282 29.6775C25.2974 29.7467 25.3914 29.7856 25.4891 29.7856H31.0241C31.2523 29.7863 31.4746 29.8575 31.6606 29.9897C31.8466 30.1219 31.9873 30.3083 32.0631 30.5237H24.3821L24.3821 22.0366ZM26.5962 26.4647C26.5962 26.2609 26.7613 26.0957 26.9651 26.0957H31.0242C31.228 26.0957 31.3932 26.2609 31.3932 26.4647C31.3932 26.6685 31.228 26.8336 31.0242 26.8336H26.9651C26.7613 26.8336 26.5962 26.6685 26.5962 26.4647ZM26.5962 27.9407C26.5962 27.7369 26.7613 27.5717 26.9651 27.5717H31.0242C31.228 27.5717 31.3932 27.7369 31.3932 27.9407C31.3932 28.1445 31.228 28.3096 31.0242 28.3096H26.9651C26.7613 28.3096 26.5962 28.1445 26.5962 27.9407ZM26.5962 24.9886C26.5962 24.7848 26.7613 24.6196 26.9651 24.6196H31.0242C31.228 24.6196 31.3932 24.7848 31.3932 24.9886C31.3932 25.1924 31.228 25.3576 31.0242 25.3576H26.9651C26.7613 25.3576 26.5962 25.1924 26.5962 24.9886ZM26.5962 23.5126C26.5962 23.3088 26.7613 23.1436 26.9651 23.1436H31.0242C31.228 23.1436 31.3932 23.3088 31.3932 23.5126C31.3932 23.7164 31.228 23.8816 31.0242 23.8816H26.9651C26.7613 23.8816 26.5962 23.7164 26.5962 23.5126ZM26.5962 22.0366C26.5962 21.8328 26.7613 21.6676 26.9651 21.6676H31.0242C31.228 21.6676 31.3932 21.8328 31.3932 22.0366C31.3932 22.2404 31.228 22.4056 31.0242 22.4056H26.9651C26.7613 22.4056 26.5962 22.2404 26.5962 22.0366ZM21.7993 36.7966C21.7993 36.5928 21.9644 36.4275 22.1682 36.4275H22.9061C23.1099 36.4275 23.2753 36.5928 23.2753 36.7966C23.2753 37.0004 23.1099 37.1656 22.9061 37.1656H22.1682C21.9644 37.1656 21.7993 37.0004 21.7993 36.7966ZM23.6442 36.7966C23.6442 36.5928 23.8094 36.4275 24.0132 36.4275H26.2273C26.4311 36.4275 26.5962 36.5928 26.5962 36.7966C26.5962 37.0004 26.4311 37.1656 26.2273 37.1656H24.0132C23.8094 37.1656 23.6442 37.0004 23.6442 36.7966Z" fill="white"/>
</g>
</g>
<defs>
<clipPath id="clip0_1_2856">
<rect width="24" height="24" fill="white" transform="translate(20.5 20)"/>
</clipPath>
</defs>
</svg>
