<svg width="34" height="32" viewBox="0 0 34 32" fill="none" xmlns="http://www.w3.org/2000/svg">
<circle cx="17" cy="16" r="14" fill="#2463EB"/>
<path d="M22.1219 14.0745C22.0726 14.004 21.9916 13.9618 21.907 13.9618H20.2688V13.2642C20.2688 13.1198 20.1491 13 20.0046 13H14.0684C13.924 13 13.8042 13.1198 13.8042 13.2642V17.5341C13.8042 17.6785 13.924 17.7983 14.0684 17.7983H14.8153C14.9527 18.2774 15.3966 18.6332 15.918 18.6332C16.4394 18.6332 16.8833 18.2809 17.0207 17.7983H19.9483C20.0857 18.2774 20.5295 18.6332 21.0509 18.6332C21.5723 18.6332 22.0162 18.2809 22.1536 17.7983H22.6997C22.8441 17.7983 22.9639 17.6785 22.9639 17.5341V15.3604C22.9639 15.304 22.9463 15.2512 22.9146 15.2089L22.1219 14.0745ZM22.439 15.4379H21.2553V14.4937H21.7732L22.439 15.4379ZM14.3326 13.532H19.7404V17.2734H17.0453C16.9432 16.7414 16.4781 16.3398 15.918 16.3398C15.3578 16.3398 14.8893 16.7414 14.7906 17.2734H14.3326V13.532ZM15.918 18.1048C15.5763 18.1048 15.2979 17.8265 15.2979 17.4847C15.2979 17.143 15.5763 16.8647 15.918 16.8647C16.2597 16.8647 16.538 17.143 16.538 17.4847C16.538 17.8265 16.2597 18.1048 15.918 18.1048ZM21.0545 18.1048C20.7127 18.1048 20.4344 17.8265 20.4344 17.4847C20.4344 17.143 20.7127 16.8647 21.0545 16.8647C21.3962 16.8647 21.6745 17.143 21.6745 17.4847C21.6745 17.8265 21.3962 18.1048 21.0545 18.1048ZM22.1818 17.2734C22.0797 16.7414 21.6146 16.3398 21.0545 16.3398C20.7515 16.3398 20.4732 16.4596 20.2688 16.6533V14.4937H20.7233V15.7021C20.7233 15.8466 20.8431 15.9663 20.9875 15.9663H22.4425V17.2734H22.1818Z" fill="white"/>
<path d="M11.2642 13.5324H13.149C13.2935 13.5324 13.4132 13.4126 13.4132 13.2681C13.4132 13.1237 13.2935 13.0039 13.149 13.0039H11.2642C11.1198 13.0039 11 13.1237 11 13.2681C11 13.4126 11.1198 13.5324 11.2642 13.5324Z" fill="white"/>
<path d="M13.1488 13.9658H11.6973C11.5529 13.9658 11.4331 14.0856 11.4331 14.23C11.4331 14.3745 11.5529 14.4943 11.6973 14.4943H13.1488C13.2932 14.4943 13.413 14.3745 13.413 14.23C13.413 14.0856 13.2968 13.9658 13.1488 13.9658Z" fill="white"/>
<path d="M13.1494 14.9268H12.2335C12.089 14.9268 11.9692 15.0465 11.9692 15.191C11.9692 15.3354 12.089 15.4552 12.2335 15.4552H13.1494C13.2939 15.4552 13.4137 15.3354 13.4137 15.191C13.4137 15.0465 13.2974 14.9268 13.1494 14.9268Z" fill="white"/>
<path d="M13.1487 15.8877H12.8316C12.6872 15.8877 12.5674 16.0075 12.5674 16.1519C12.5674 16.2964 12.6872 16.4161 12.8316 16.4161H13.1487C13.2931 16.4161 13.4129 16.2964 13.4129 16.1519C13.4129 16.0075 13.2966 15.8877 13.1487 15.8877Z" fill="white"/>
</svg>
